<svg xmlns="http://www.w3.org/2000/svg" width="200" height="61" fill="none"><g clip-path="url(#a)"><path fill="url(#b)" d="M.294 30.8c0-16.568 13.431-30 30-30h139.412c16.569 0 30 13.432 30 30 0 16.57-13.431 30-30 30H30.294c-16.569 0-30-13.43-30-30"/><path fill="#163300" d="M22.186 37.86V23.742h5.57q1.605 0 2.736.614a4.15 4.15 0 0 1 1.723 1.688q.6 1.076.6 2.482t-.606 2.482q-.607 1.075-1.758 1.675-1.145.6-2.771.6h-3.55V30.89h3.067q.862 0 1.42-.297.565-.303.841-.834.283-.538.283-1.234 0-.703-.283-1.227a1.9 1.9 0 0 0-.841-.82q-.566-.297-1.434-.297H25.17V37.86zm14.898.2q-1.013 0-1.806-.352a2.9 2.9 0 0 1-1.254-1.055q-.456-.703-.455-1.75 0-.883.324-1.483t.882-.965a4.3 4.3 0 0 1 1.268-.551 10 10 0 0 1 1.503-.262 38 38 0 0 0 1.49-.18q.564-.088.82-.261.255-.172.255-.51v-.042q0-.654-.414-1.013-.407-.358-1.158-.358-.794 0-1.262.351-.468.345-.62.869l-2.716-.221q.207-.965.813-1.668.607-.71 1.565-1.09.965-.385 2.234-.385.882 0 1.688.206a4.4 4.4 0 0 1 1.441.642q.634.434 1 1.116.365.675.365 1.62v7.142h-2.785V36.39h-.083q-.255.497-.682.876a3.2 3.2 0 0 1-1.027.586q-.6.207-1.386.207m.841-2.027q.648 0 1.145-.255.495-.262.779-.703.282-.441.282-1v-1.123q-.138.09-.379.165-.234.07-.53.131-.297.055-.594.104l-.537.075q-.517.075-.903.242-.387.165-.6.448a1.1 1.1 0 0 0-.214.689q0 .6.434.917.442.31 1.117.31m8.485 5.797a6 6 0 0 1-1.048-.09 3.8 3.8 0 0 1-.8-.213l.662-2.192q.518.159.93.172.421.014.724-.193.31-.207.504-.703l.172-.448-3.798-10.891h3.088l2.192 7.775h.11l2.213-7.775h3.11l-4.116 11.732a4.9 4.9 0 0 1-.807 1.489q-.502.64-1.275.986-.772.351-1.861.351m15.444-3.97-2.882-10.588h2.971l1.64 7.114h.097l1.71-7.115h2.916l1.737 7.073h.09l1.613-7.073h2.964L71.835 37.86h-3.109l-1.82-6.66h-.13l-1.82 6.66zm14.073 0V27.272h2.936V37.86zm1.475-11.953q-.655 0-1.124-.435a1.4 1.4 0 0 1-.462-1.054q0-.607.462-1.041a1.58 1.58 0 0 1 1.124-.441q.654 0 1.117.44.468.435.468 1.042 0 .613-.468 1.054-.462.435-1.117.435m9.096 1.364v2.206h-6.376v-2.206zm-4.929-2.536h2.937v9.871q0 .407.124.634.124.22.345.31.227.09.524.09.207 0 .413-.034.207-.042.317-.062l.462 2.185a8 8 0 0 1-.62.158q-.4.097-.972.117-1.062.042-1.861-.282a2.6 2.6 0 0 1-1.234-1.007q-.442-.682-.435-1.723zm9.657 7.003v6.122h-2.937V23.742h2.854v5.398h.124a3 3 0 0 1 1.159-1.469q.799-.537 2.005-.537 1.103 0 1.924.482.826.475 1.282 1.372.463.89.454 2.13v6.742h-2.936v-6.218q.007-.979-.496-1.523-.496-.546-1.393-.545-.6 0-1.061.255-.455.255-.717.744-.255.483-.262 1.165M145.374 22.38h4.7l-2.364 16.87h-4.701zm-5.926 0-3.172 9.718-1.384-9.717h-3.287l-4.153 9.688-.518-9.688h-4.557l1.587 16.869h3.777l4.671-10.67 1.644 10.67h3.72l6.142-16.87zm39.462 9.805h-11.16c.059 2.191 1.371 3.633 3.302 3.633 1.457 0 2.61-.779 3.504-2.264l3.768 1.713c-1.296 2.55-4.023 4.213-7.387 4.213-4.585 0-7.627-3.085-7.627-8.045 0-5.45 3.576-9.314 8.622-9.314 4.441 0 7.238 2.999 7.238 7.67 0 .779-.087 1.558-.26 2.394m-4.181-3.23c0-1.96-1.096-3.2-2.854-3.2-1.76 0-3.317 1.297-3.72 3.2zm-67.042-1.49-4.798 5.606h8.567l.963-2.644h-3.671l2.243-2.594.008-.069-1.459-2.51h6.561l-5.086 13.996h3.48l6.142-16.87h-15.868zm50.028-1.71c1.659 0 3.112.89 4.381 2.419l.666-4.755c-1.182-.8-2.782-1.298-4.902-1.298-4.21 0-6.574 2.466-6.574 5.594 0 2.17 1.21 3.497 3.2 4.354l.952.433c1.774.757 2.249 1.132 2.249 1.932s-.8 1.355-2.019 1.355c-2.011.008-3.64-1.023-4.866-2.782l-.678 4.846c1.395 1.063 3.184 1.627 5.544 1.627 4.002 0 6.46-2.307 6.46-5.507 0-2.177-.966-3.576-3.403-4.672l-1.038-.49c-1.442-.642-1.932-.995-1.932-1.701 0-.764.67-1.356 1.96-1.356"/></g><defs><linearGradient id="b" x1="31.002" x2="170.514" y1="-5.644" y2="73.969" gradientUnits="userSpaceOnUse"><stop stop-color="#9FE870"/><stop offset="1" stop-color="#B4E991"/></linearGradient><clipPath id="a"><path fill="#fff" d="M.294.8h199.412v60H.294z"/></clipPath></defs></svg>