<?xml version="1.0" encoding="UTF-8" standalone="no"?>
<!DOCTYPE svg PUBLIC "-//W3C//DTD SVG 20010904//EN"
              "http://www.w3.org/TR/2001/REC-SVG-20010904/DTD/svg10.dtd">

<svg xmlns="http://www.w3.org/2000/svg"
     width="47.1106mm" height="47.1106mm"
     viewBox="0 0 150 150">
  <path id="Selection"
        fill="none" stroke="black" stroke-width="1"
        d="M 67.00,0.79
           C 70.91,-0.22 79.16,-0.64 83.00,0.79
             83.00,0.79 108.00,15.58 108.00,15.58
             108.00,15.58 121.00,23.53 121.00,23.53
             121.00,23.53 129.00,30.22 129.00,30.22
             132.22,32.54 136.90,34.55 138.83,38.09
             140.53,41.22 139.84,46.41 140.09,50.00
             140.09,50.00 141.82,62.00 141.82,62.00
             141.82,62.00 140.60,72.00 140.60,72.00
             140.60,72.00 141.66,84.00 141.66,84.00
             141.66,84.00 140.09,96.00 140.09,96.00
             140.17,101.00 142.17,105.62 140.09,111.00
             137.42,117.34 128.77,122.39 123.00,125.72
             123.00,125.72 99.00,139.80 99.00,139.80
             95.32,142.01 86.06,148.61 83.00,149.49
             80.64,150.17 74.69,150.04 72.00,150.00
             63.87,149.86 61.71,146.30 55.00,142.20
             55.00,142.20 23.00,123.31 23.00,123.31
             17.64,119.89 12.00,116.35 9.87,110.00
             7.95,104.38 10.14,100.41 9.87,95.00
             9.87,95.00 9.01,82.00 9.01,82.00
             9.01,82.00 9.68,72.00 9.68,72.00
             9.68,72.00 9.00,61.00 9.00,61.00
             9.05,57.33 10.12,40.54 11.45,38.09
             13.66,34.04 19.30,31.69 23.00,28.68
             23.00,28.68 30.00,22.78 30.00,22.78
             30.00,22.78 56.00,7.58 56.00,7.58
             56.00,7.58 67.00,0.79 67.00,0.79 Z
           M 58.00,32.00
           C 53.21,35.63 49.09,41.71 49.26,48.00
             49.34,50.83 51.26,58.83 55.59,56.68
             57.59,55.68 57.85,52.95 57.79,51.00
             57.79,51.00 57.04,44.00 57.04,44.00
             57.04,44.00 58.00,32.00 58.00,32.00 Z
           M 92.99,32.00
           C 91.83,35.52 92.91,38.31 92.99,42.00
             92.99,42.00 92.28,51.98 92.28,51.98
             92.31,53.91 92.90,56.55 95.18,56.95
             98.59,57.54 100.10,52.50 100.52,50.00
             101.68,43.10 97.35,36.86 92.99,32.00 Z
           M 36.69,72.36
           C 27.19,71.66 25.81,83.01 33.03,85.00
             38.73,86.57 41.17,76.33 36.69,72.36 Z
           M 114.15,72.15
           C 108.49,74.78 111.01,85.45 116.03,85.18
             119.39,84.99 123.21,80.33 120.96,76.19
             119.47,73.43 116.99,72.57 114.15,72.15 Z
           M 75.05,85.17
           C 68.36,86.38 71.26,95.29 75.05,96.26
             78.39,97.09 79.99,93.79 79.72,91.00
             79.38,87.60 77.88,86.38 75.05,85.17 Z
           M 33.95,95.74
           C 24.49,98.49 28.78,107.54 34.89,106.58
             39.68,105.83 40.47,97.44 33.95,95.74 Z
           M 115.13,95.82
           C 108.88,99.28 111.00,107.72 117.00,106.51
             123.48,105.21 123.25,96.38 115.13,95.82 Z" />
</svg>
