<?xml version="1.0" encoding="UTF-8" standalone="no"?>
<!-- Creator: CorelDRAW 2021 (64-Bit) -->

<svg
   xml:space="preserve"
   width="8.1549797in"
   height="2.2721951in"
   version="1.1"
   style="clip-rule:evenodd;fill-rule:evenodd;image-rendering:optimizeQuality;shape-rendering:geometricPrecision;text-rendering:geometricPrecision"
   viewBox="1800.86 5256.45 4298.2971 210.04528"
   id="svg504"
   sodipodi:docname="unicis-platform-logo-hor-3.svg"
   inkscape:version="1.2.2 (b0a84865, 2022-12-01)"
   xmlns:inkscape="http://www.inkscape.org/namespaces/inkscape"
   xmlns:sodipodi="http://sodipodi.sourceforge.net/DTD/sodipodi-0.dtd"
   xmlns:xlink="http://www.w3.org/1999/xlink"
   xmlns="http://www.w3.org/2000/svg"
   xmlns:svg="http://www.w3.org/2000/svg"><sodipodi:namedview
   id="namedview506"
   pagecolor="#ffffff"
   bordercolor="#000000"
   borderopacity="0.25"
   inkscape:showpageshadow="2"
   inkscape:pageopacity="0.0"
   inkscape:pagecheckerboard="0"
   inkscape:deskcolor="#d1d1d1"
   inkscape:document-units="in"
   showgrid="false"
   inkscape:zoom="0.78239463"
   inkscape:cx="56.876669"
   inkscape:cy="99.693936"
   inkscape:window-width="1440"
   inkscape:window-height="790"
   inkscape:window-x="0"
   inkscape:window-y="25"
   inkscape:window-maximized="1"
   inkscape:current-layer="Layer_x0020_1" />
 <defs
   id="defs465">
  <style
   type="text/css"
   id="style428">
   <![CDATA[
    .fil1 {fill:#0052CC}
    .fil6 {fill:#2684FF}
    .fil12 {fill:#388EFF}
    .fil0 {fill:white}
    .fil9 {fill:url(#id0)}
    .fil3 {fill:url(#id1)}
    .fil4 {fill:url(#id2)}
    .fil8 {fill:url(#id3)}
    .fil11 {fill:url(#id4)}
    .fil10 {fill:url(#id5)}
    .fil2 {fill:url(#id6)}
    .fil5 {fill:url(#id7)}
    .fil7 {fill:url(#id8)}
   ]]>
  </style>
  <linearGradient
   id="id0"
   gradientUnits="userSpaceOnUse"
   x1="2798.29"
   y1="6282.2402"
   x2="2798.3"
   y2="5878.6802">
   <stop
   offset="0"
   style="stop-opacity:1; stop-color:#388EFF"
   id="stop430" />
   <stop
   offset="0.580392"
   style="stop-opacity:1; stop-color:#247BF4"
   id="stop432" />
   <stop
   offset="1"
   style="stop-opacity:1; stop-color:#1067E8"
   id="stop434" />
  </linearGradient>
  <linearGradient
   id="id1"
   gradientUnits="userSpaceOnUse"
   x1="2243.3601"
   y1="5907.0698"
   x2="2362.51"
   y2="5907.0801">
   <stop
   offset="0"
   style="stop-opacity:1; stop-color:#0052CC"
   id="stop437" />
   <stop
   offset="1"
   style="stop-opacity:1; stop-color:#0044AB"
   id="stop439" />
  </linearGradient>
  <linearGradient
   id="id2"
   gradientUnits="userSpaceOnUse"
   xlink:href="#id1"
   x1="2506.6899"
   y1="6263.5698"
   x2="2744.22"
   y2="6122.71">
  </linearGradient>
  <linearGradient
   id="id3"
   gradientUnits="userSpaceOnUse"
   x1="1974.55"
   y1="6024.6899"
   x2="1974.55"
   y2="5606.8301">
   <stop
   offset="0"
   style="stop-opacity:1; stop-color:#1067E8"
   id="stop443" />
   <stop
   offset="0.380392"
   style="stop-opacity:1; stop-color:#247AF3"
   id="stop445" />
   <stop
   offset="1"
   style="stop-opacity:1; stop-color:#388EFF"
   id="stop447" />
  </linearGradient>
  <linearGradient
   id="id4"
   gradientUnits="userSpaceOnUse"
   x1="2444.5"
   y1="5439.4502"
   x2="2677.6899"
   y2="5440.3101">
   <stop
   offset="0"
   style="stop-opacity:1; stop-color:#1067E8"
   id="stop450" />
   <stop
   offset="0.458824"
   style="stop-opacity:1; stop-color:#247AF3"
   id="stop452" />
   <stop
   offset="1"
   style="stop-opacity:1; stop-color:#388EFF"
   id="stop454" />
  </linearGradient>
  <linearGradient
   id="id5"
   gradientUnits="userSpaceOnUse"
   xlink:href="#id3"
   x1="2472.3501"
   y1="5950.4199"
   x2="2472.3501"
   y2="5564.8301">
  </linearGradient>
  <linearGradient
   id="id6"
   gradientUnits="userSpaceOnUse"
   xlink:href="#id1"
   x1="2059.6101"
   y1="6151.4302"
   x2="2216.3899"
   y2="6228.6299">
  </linearGradient>
  <linearGradient
   id="id7"
   gradientUnits="userSpaceOnUse"
   x1="2217.3401"
   y1="6234.2402"
   x2="2489.76"
   y2="6388.8101">
   <stop
   offset="0"
   style="stop-opacity:1; stop-color:#2684FF"
   id="stop459" />
   <stop
   offset="1"
   style="stop-opacity:1; stop-color:#1067E8"
   id="stop461" />
  </linearGradient>
  <linearGradient
   id="id8"
   gradientUnits="userSpaceOnUse"
   xlink:href="#id7"
   x1="2278.9199"
   y1="5455.7598"
   x2="2378.79"
   y2="5644.3701">
  </linearGradient>
 <linearGradient
   inkscape:collect="always"
   xlink:href="#id1"
   id="linearGradient1242"
   gradientUnits="userSpaceOnUse"
   x1="2243.3601"
   y1="5907.0698"
   x2="2362.51"
   y2="5907.0801" /><linearGradient
   inkscape:collect="always"
   xlink:href="#id7"
   id="linearGradient1244"
   gradientUnits="userSpaceOnUse"
   x1="2217.3401"
   y1="6234.2402"
   x2="2489.76"
   y2="6388.8101" /><linearGradient
   inkscape:collect="always"
   xlink:href="#id3"
   id="linearGradient1246"
   gradientUnits="userSpaceOnUse"
   x1="1974.55"
   y1="6024.6899"
   x2="1974.55"
   y2="5606.8301" /></defs>
 <g
   id="Layer_x0020_1"
   inkscape:label="Layer 1"
   inkscape:groupmode="layer"
   transform="translate(-53.278184,-2545.3225)">
  <metadata
   id="CorelCorpID_0Corel-Layer" />
  <rect
   class="fil0"
   x="1906.3674"
   y="7349.8721"
   width="4298.2969"
   height="1197.6204"
   id="rect468"
   style="stroke-width:0.312043" />
  <g
   id="_2054450621936"
   transform="translate(52.229247,2089.1699)">
   <path
   class="fil1"
   d="m 2250.24,5355.43 c -8.76,5.06 -7.04,12.48 1.02,17.12 36.22,20.91 72.45,41.83 108.67,62.74 9.8,5.66 16.08,2.16 16.08,-9.24 0,-39.27 0,-78.54 0,-117.81 0,-10.41 -3.44,-13.68 -13.57,-10.74 -13.62,3.94 -26.73,10.26 -39.28,16.77 -19.66,10.2 -38.75,21.43 -57.93,32.5 -5,2.89 -10,5.77 -15,8.66 z"
   id="path470" />
   <path
   class="fil2"
   d="m 2124.19,6257.95 c 11.28,6.51 18.14,2.81 24.33,-7.91 18.14,-31.43 36.29,-62.85 54.43,-94.28 6.55,-11.35 4.21,-18.79 -7.04,-25.29 -40.52,-23.4 -81.05,-46.8 -121.57,-70.19 -9.33,-5.39 -19.96,-6.48 -29.52,-0.97 -35.49,20.49 -70.98,40.98 -106.47,61.48 -13.27,7.67 -15.7,13.21 -3.33,23.45 9.81,8.12 20.54,15.17 31.32,21.9 17.19,10.75 34.81,20.79 52.37,30.92 35.16,20.3 70.31,40.6 105.47,60.89 z"
   id="path472"
   style="fill:url(#id6)" />
   <path
   class="fil1"
   d="m 1896.52,5723.8 c 0,14.36 6.66,16.89 18.63,9.99 40.46,-23.36 80.93,-46.72 121.39,-70.09 11.41,-6.59 12.01,-13.85 0.36,-20.57 -37.03,-21.38 -74.06,-42.76 -111.09,-64.15 -8.69,-5.02 -16.86,-7.4 -20.78,4.06 -4.77,13.97 -6.41,29.28 -7.31,43.94 -1.52,24.55 -1.2,49.18 -1.2,73.76 0,7.68 0,15.37 0,23.05 z"
   id="path474" />
   <path
   class="fil1"
   d="m 2718.22,5482.54 v 120.54 c 0,12.07 0.96,18.13 11.99,24.5 l 135.37,78.15 c 7,4.04 12.77,5.05 12.77,-4.97 0,-141.29 0.15,-141.01 -122.2,-211.66 l -24.83,-14.33 c -7.04,-4.07 -13.09,-0.09 -13.09,7.78 z"
   id="path476" />
   <path
   class="fil3"
   d="m 2376.01,6005.65 c 0,-48.01 0,-96.02 0,-144.03 0,-16.18 -4.4,-25.25 -18.58,-33.44 -37.27,-21.52 -74.54,-43.04 -111.8,-64.55 -16.38,-9.46 -20.43,-4.41 -20.43,13.18 0,46.35 0,92.7 0,139.06 0,20.2 0.76,31.79 19.6,42.67 35.64,20.57 71.28,41.16 106.92,61.73 18.52,10.69 24.28,6.31 24.28,-14.62 z"
   id="path478"
   style="fill:url(#linearGradient1242)" />
   <path
   class="fil4"
   d="m 2428.73,6238.5 c 34.7,20.04 69.41,40.08 104.13,60.12 21.98,12.69 27.16,11.69 48.86,-0.7 33.61,-19.19 67.04,-38.72 100.52,-58.14 11.84,-6.87 13.14,-13.04 13.14,-26.11 0,-43.67 0,-87.33 0,-131 0,-11.05 -9.02,-14.21 -17.88,-9.09 -82.64,47.71 -165.27,95.43 -247.91,143.14 -12.21,7.05 -13.72,14.36 -0.85,21.79 z"
   id="path480"
   style="fill:url(#id2)" />
   <path
   class="fil1"
   d="m 2510.72,5542.35 -94.05,54.3 c -9.04,5.22 -8.39,13.29 0.37,18.35 37.83,21.83 75.65,43.68 113.47,65.51 13.13,7.58 19.17,4.65 19.17,-10.79 v -105.8 c 0,-12.08 -3.5,-16.23 -13.34,-21.91 -2.49,-1.44 -5.13,-3.04 -7.91,-3.84 -6.2,-1.81 -12.42,1.13 -17.7,4.19 z"
   id="path482" />
   <path
   class="fil5"
   d="m 2520.73,6332.98 c 8.47,-4.89 5.24,-11.95 -1.91,-16.08 -90.99,-52.53 -181.97,-105.06 -272.96,-157.59 -8.67,-5 -16.77,-3.13 -21.84,5.66 -18.85,32.64 -37.67,65.28 -56.53,97.92 -6.2,10.74 -4.17,17.67 6.48,23.81 30.42,17.56 60.84,35.13 91.26,52.69 122.35,70.65 122.05,70.64 244.4,0 3.7,-2.13 7.4,-4.27 11.1,-6.41 z"
   id="path484"
   style="fill:url(#linearGradient1244)" />
   <path
   class="fil6"
   d="m 2718.22,5665.2 c 0,47.17 0,94.33 0,141.5 0,12.2 7.54,17.34 18.42,11.06 40.24,-23.24 80.48,-46.47 120.72,-69.7 8.67,-5 8.26,-15.92 -0.24,-20.82 -40.84,-23.57 -81.67,-47.16 -122.5,-70.73 -7.85,-4.53 -16.41,-0.96 -16.41,8.69 z"
   id="path486" />
   <path
   class="fil7"
   d="m 2230.46,5386.93 c -13.06,-7.54 -22.39,-7.16 -35.33,0.31 -36.09,20.84 -72.18,41.69 -108.28,62.52 -7.86,4.54 -10.1,16.22 -1.45,21.21 39.91,23.05 79.82,46.09 119.73,69.13 18.43,10.64 20.01,22.08 20.07,41.99 0.13,40.6 0,81.2 0,121.8 0,16.59 1.97,22.72 16.7,31.22 39.28,22.67 78.55,45.35 117.82,68.02 14.07,8.13 16.29,-1.63 16.29,-14.02 0,-99.83 0,-199.65 0,-299.48 0,-10.28 -3.65,-20.78 -12.93,-26.13 -44.21,-25.52 -88.41,-51.04 -132.61,-76.57 z"
   id="path488"
   style="fill:url(#id8)" />
   <path
   class="fil8"
   d="m 1896.52,5791.23 c 0,17.28 0,34.56 0,51.84 0,47.44 0,94.88 0,142.32 0,21.69 -0.16,43.38 0.76,65.05 0.58,13.74 1.58,27.76 4.57,41.2 4.43,19.89 10.88,17.55 26.53,8.51 38.34,-22.13 76.68,-44.28 115.02,-66.41 9.75,-5.63 13.24,-15.76 13.24,-26.55 0,-103.09 0,-206.18 0,-309.27 0,-9.94 -7.85,-14.92 -16.65,-9.84 -43.13,24.89 -86.26,49.8 -129.39,74.7 -10.69,6.17 -14.08,16.64 -14.08,28.43 z"
   id="path490"
   style="fill:url(#linearGradient1246)" />
   <path
   class="fil9"
   d="m 2878.35,5783.12 c 0,-14.26 -4.15,-18.4 -17.4,-10.75 l -126.13,72.82 c -15.78,9.11 -16.6,14.5 -16.6,32.06 v 320.85 c 0,13.15 6.92,16.86 18.26,10.32 l 19.67,-11.35 c 122.36,-70.64 122.2,-70.37 122.2,-211.66 0,-47.44 0,-94.88 0,-142.32 v -59.96 z"
   id="path492"
   style="fill:url(#id0)" />
   <path
   class="fil10"
   d="m 2420.24,6021.94 c 38.31,-22.12 76.98,-43.62 114.92,-66.39 13.14,-7.89 14.51,-16.28 14.51,-30.78 0,-62.96 0,-125.91 0,-188.87 0,-13.24 -2.45,-19.35 -14.13,-26.09 -40,-23.09 -80,-46.19 -120,-69.28 -9.75,-5.63 -16.68,-1.77 -16.68,9.52 0,120.67 0,241.35 0,362.02 0,16.37 9.07,16.98 21.39,9.87 z"
   id="path494"
   style="fill:url(#id5)" />
   <path
   class="fil11"
   d="m 2509.63,5346.77 c -19.48,-11.24 -38.9,-22.62 -58.91,-32.9 -12.18,-6.26 -24.82,-12.27 -37.96,-16.24 -9.01,-2.72 -13.9,-0.42 -13.9,9.61 0,84.39 0,168.77 0,253.16 0,13.29 9.07,14.92 19.26,9.04 29.84,-17.23 59.83,-34.21 89.78,-51.26 4.87,-2.77 10.02,-4.41 15.66,-4.3 12.26,0.24 26.55,9.71 36.95,15.71 l 116.72,67.33 c 13.66,7.88 18.15,0.15 18.15,-13.45 v -114.23 c 0,-8.72 -2.42,-16.64 -10.33,-21.23 -18.68,-10.83 -37.41,-21.59 -56.13,-32.37 l -119.28,-68.87 z"
   id="path496"
   style="fill:url(#id4)" />
  </g>
  <path
   class="fil12"
   d="m 3805.0092,7576.7799 h -91.4 v 240.83 c 0,27.42 -15.93,40.4 -42.64,40.4 h -157.11 c -26.54,0 -41.52,-13.5 -41.52,-40.4 v -240.83 h -91.4 v 252.01 c 0,17.57 1.63,36.13 7.02,52.93 4.34,13.53 11.37,25.55 21.8,35.25 10.98,10.2 24.62,16.63 38.95,20.61 19.03,5.29 39.88,6.8 59.56,6.8 h 169.41 c 32.06,0 73.62,-4.36 98.22,-27.39 23.59,-22.09 29.11,-57.39 29.11,-88.19 v -252.01 z m 622.6,0 h -88.6 v 239.15 c 0,8.38 -3.89,15.24 -13.01,15.24 -2.33,0 -4.66,-0.35 -6.85,-1.17 -2.71,-1.02 -4.91,-3.02 -6.63,-5.16 l -184.44,-220.78 c -9.55,-11.04 -21.16,-21.65 -34.57,-27.75 -13.31,-6.05 -28.65,-7.92 -43.14,-7.92 -11.4,0 -22.81,1.33 -33.77,4.54 -9.68,2.83 -18.45,7.47 -25.94,14.24 -7.71,6.98 -13.11,15.75 -16.81,25.41 -4.67,12.19 -6.09,25.99 -6.09,38.96 v 292.82 h 89.17 v -250.89 c 0,-4.3 1.22,-8.39 4.31,-11.49 2.83,-2.83 6.37,-4.31 10.37,-4.31 5.2,0 9.49,3.03 12.86,6.83 l 207.43,239.85 c 8.15,9.43 17.89,16.72 29.53,21.2 12.78,4.92 26.73,6.65 40.35,6.65 8.6,0 16.98,-1.45 25.04,-4.43 7.9,-2.92 14.82,-7.38 20.78,-13.34 6.56,-6.56 11.19,-14.72 14.48,-23.35 4.18,-10.94 5.53,-23.13 5.53,-34.78 v -299.53 z m 258.06,0 h -91.4 v 367.59 h 91.4 z m 546.56,367.59 v -89.16 h -192.74 c -15.9,0 -32.56,-1.98 -47.31,-8.24 -12.35,-5.24 -23.46,-12.6 -32.48,-22.44 -7.97,-8.37 -14.09,-18.03 -18.39,-28.76 -4.43,-11.07 -6.52,-22.71 -6.52,-34.63 0,-13.18 2.6,-25.9 8,-37.91 5.21,-11.58 12.37,-21.91 21.55,-30.69 l 0.1,-0.09 c 8.99,-8.17 19.37,-14.37 30.63,-18.87 13.79,-5.51 29.68,-7.08 44.41,-7.08 h 192.74 v -89.72 h -192.74 c -26.44,0 -53.56,3.31 -78.38,12.8 -21.48,8.2 -40.99,19.93 -57.87,35.58 -18.54,17.19 -33.09,37.36 -43.53,60.4 -10.76,23.75 -15.75,48.96 -15.75,75.02 0,23.35 3.87,46.23 12.49,67.98 8.22,20.72 19.72,39.57 34.79,56 17.42,19 38.44,33.39 62,43.77 27,11.89 56.94,16.05 86.25,16.05 h 192.74 z m 249.68,-367.59 h -91.4 v 367.59 h 91.4 z m 551.59,89.72 v -89.72 h -272.14 c -19.07,0 -41.15,1.66 -59.01,8.85 -13.56,5.46 -26.04,13.1 -36.22,23.67 -9.65,10.01 -17.23,21.46 -22.73,34.23 -5.61,13.04 -8.24,26.81 -8.24,41 0,14.24 2.42,28.17 7.98,41.31 5.36,12.69 12.88,24.01 22.44,33.93 10.24,10.61 22.84,18.24 36.48,23.66 18.02,7.17 40.09,8.86 59.31,8.86 h 153.76 c 5.95,0 13.01,0.33 18.69,2.22 4.65,1.55 8.68,4.14 11.93,7.8 6.4,6.46 9.22,14.61 9.22,23.67 0,7.75 -2.34,14.81 -7.4,20.7 -3.33,3.89 -7.65,6.59 -12.39,8.44 -6.07,2.38 -13.59,2.87 -20.06,2.87 h -269.9 v 86.37 h 287.79 c 18.39,0 37.73,-2.43 54.59,-10.15 14.18,-6.49 26.87,-15.36 37.1,-27.19 8.38,-9.69 14.79,-20.74 19.51,-32.63 4.81,-12.11 7.18,-24.75 7.18,-37.78 0,-14.03 -2.7,-27.56 -8.24,-40.44 -5.5,-12.77 -13.08,-24.23 -22.73,-34.24 -10.04,-10.42 -22.13,-18.13 -35.45,-23.7 -16.16,-6.75 -34.57,-8.82 -51.96,-8.82 h -166.06 c -4.85,0 -10.48,-0.24 -15.16,-1.61 -3.63,-1.07 -7.02,-2.75 -9.94,-5.17 -7.52,-6.21 -11.39,-14.37 -11.39,-24.12 0,-8.94 2.98,-16.87 9.34,-23.23 2.97,-2.97 6.62,-5.07 10.54,-6.51 5.08,-1.87 11.23,-2.28 16.61,-2.28 h 266.55 z"
   id="path499" />
  <path
   class="fil12"
   d="m 3380.9492,8316.6899 h 58.79 v -61.79 h 116.54 c 15.53,0 31.93,-2.01 46.15,-8.58 11.89,-5.5 22.38,-13.12 30.76,-23.23 6.56,-7.91 11.63,-16.8 15.22,-26.43 3.63,-9.71 5.41,-19.85 5.41,-30.22 0,-11.86 -2.35,-23.34 -6.99,-34.25 -4.58,-10.75 -10.97,-20.43 -19.24,-28.7 -8.23,-8.23 -18.04,-14.34 -28.81,-18.67 -13.21,-5.31 -28.35,-6.83 -42.49,-6.83 h -162.83 c -8.31,0 -12.49,3.18 -12.49,11.76 v 226.93 z m 176.78,-115.12 h -117.99 v -56.93 c 0,-5.14 2.95,-8.59 8.22,-8.59 h 109.76 c 6.23,0 12.89,0.7 18.65,3.19 4.72,2.04 8.92,4.98 12.09,9.06 4.7,6.05 6.92,13.05 6.92,20.68 0,7.22 -2.14,13.8 -6.51,19.54 -3.12,4.26 -7.27,7.43 -12.06,9.63 -5.83,2.68 -12.73,3.41 -19.09,3.41 z m 409.16,115.12 v -55.88 h -166.96 c -6.61,0 -15.08,-0.9 -19.83,-6.03 -4.73,-5.11 -5.48,-14.07 -5.48,-20.74 v -156.06 h -59.15 v 162.24 c 0,11.42 0.94,23.11 3.88,34.18 2.32,8.76 6.25,16.91 12.45,23.59 6.3,6.79 14.45,11.17 23.21,13.94 11.71,3.72 24.68,4.74 36.92,4.74 h 174.96 z m 35.36,0 h 68.48 c 0.18,-0.66 0.37,-1.32 0.59,-1.97 0.48,-1.45 0.97,-2.91 1.45,-4.36 l 0.05,-0.14 13.69,-31.69 h 149.97 l 14.03,31.95 0.02,0.06 c 0.52,1.3 1.02,2.61 1.5,3.92 0.27,0.74 0.52,1.49 0.76,2.24 h 66.89 c -0.09,-0.26 -0.18,-0.52 -0.27,-0.77 -0.62,-1.74 -1.37,-3.42 -2.2,-5.08 l -88.73,-194.91 c -5.94,-13.04 -14.41,-24.77 -26.53,-32.69 -12.23,-7.98 -26.74,-10.7 -41.16,-10.7 -14.49,0 -29.41,2.59 -41.69,10.69 -12.04,7.94 -20.48,19.67 -26.36,32.69 l -87.99,194.88 -0.03,0.06 c -0.82,1.64 -1.57,3.32 -2.2,5.06 -0.09,0.26 -0.18,0.52 -0.27,0.78 z m 213.28,-85.32 h -108.02 l 39.51,-92.83 c 1.31,-3.09 3.24,-6 6.23,-7.68 2.44,-1.37 5.09,-2.09 7.89,-2.09 3,0 5.85,0.76 8.4,2.35 2.79,1.74 4.72,4.4 6.07,7.37 l 39.91,92.87 z m 365.97,-153.38 h -274.68 v 58.06 h 107.94 v 180.64 h 59.15 v -180.64 h 107.58 v -58.06 z m 313.26,0 h -210.58 c -27.99,0 -40.84,13.85 -40.84,41.57 v 197.13 h 58.78 v -82.14 h 191.54 v -54.06 h -191.54 v -30.04 c 0,-8.82 4.59,-14.4 13.68,-14.4 h 178.95 v -58.06 z m 187,238.7 h 51.61 c 19.04,0 38.48,-2.7 56.02,-10.43 15.28,-6.72 28.96,-16.09 40.26,-28.42 9.77,-10.66 17.26,-22.93 22.59,-36.36 5.59,-14.1 8.11,-28.99 8.11,-44.14 0,-16.89 -3.25,-33.3 -10.23,-48.71 -6.76,-14.93 -16.25,-28.08 -28.27,-39.22 -10.95,-10.15 -23.65,-17.78 -37.58,-23.1 -16.13,-6.17 -33.72,-8.31 -50.91,-8.31 h -51.61 c -17.19,0 -34.77,2.15 -50.91,8.31 -13.93,5.32 -26.63,12.96 -37.58,23.1 -12.02,11.14 -21.5,24.29 -28.27,39.22 -6.98,15.41 -10.23,31.82 -10.23,48.71 0,15.15 2.52,30.04 8.11,44.14 5.32,13.43 12.82,25.7 22.59,36.36 11.3,12.33 24.99,21.7 40.26,28.42 17.54,7.72 36.97,10.43 56.02,10.43 z m 0,-180.64 h 51.61 c 9.63,0 19.93,1.01 28.92,4.61 7.33,2.93 14.09,6.99 19.96,12.3 l 0.06,0.05 c 6.13,5.55 10.65,12.47 14.04,20 3.52,7.82 5.21,16.13 5.21,24.7 0,7.75 -1.37,15.36 -4.25,22.56 -2.79,6.97 -6.78,13.28 -11.96,18.72 -5.9,6.44 -13.15,11.24 -21.18,14.65 -9.61,4.07 -20.44,5.36 -30.81,5.36 h -51.61 c -10.37,0 -21.2,-1.29 -30.81,-5.36 -8.03,-3.41 -15.28,-8.2 -21.18,-14.65 -5.18,-5.44 -9.17,-11.75 -11.96,-18.72 -2.88,-7.2 -4.25,-14.81 -4.25,-22.56 0,-8.57 1.69,-16.88 5.21,-24.7 3.39,-7.53 7.95,-14.4 14.04,-20 l 0.06,-0.05 c 5.82,-5.35 12.63,-9.37 19.96,-12.3 9,-3.6 19.3,-4.61 28.92,-4.61 z m 305.39,180.64 v -87.23 h 117.99 c 7.52,0 16.94,0.94 22.94,5.89 5.8,4.78 7.45,12.24 7.45,19.42 v 49.07 c 0,4.29 0.22,8.59 0.69,12.85 h 59.46 c -0.22,-2.18 -0.37,-4.36 -0.45,-6.55 -0.16,-4.4 -0.19,-8.81 -0.19,-13.21 v -49.07 c 0,-9.75 -0.85,-21.96 -5.26,-30.78 -3.7,-7.39 -9.57,-12.93 -16.63,-17.08 l -4.62,-2.72 4.34,-3.14 c 7.56,-5.46 13.59,-12.35 16.95,-21.13 3.31,-8.62 4.86,-17.69 4.86,-26.91 0,-8.63 -1.65,-17.03 -5,-24.99 -3.27,-7.77 -7.8,-14.84 -13.65,-20.92 -6.78,-7.04 -14.98,-12.29 -23.93,-16.11 -11.19,-4.78 -24.35,-6.08 -36.43,-6.08 h -174.46 c -8.34,0 -12.85,3.01 -12.85,11.76 v 226.93 h 58.78 z m 140.16,-176.64 c 4.41,4.44 6.41,10 6.41,16.22 0,5.61 -2,10.59 -5.5,14.92 -2.3,2.85 -5.15,5.11 -8.43,6.75 -3.92,1.96 -8.5,2.55 -12.83,2.55 h -119.81 v -39.12 c 0,-5.57 3.38,-8.95 8.95,-8.95 h 110.85 c 7.57,0 15.15,1.83 20.35,7.63 z m 449.96,176.64 h 56.24 v -176.41 c 0,-10.87 -1.23,-22.72 -5.69,-32.74 -3.65,-8.17 -8.85,-15.28 -15.88,-20.85 -5.48,-4.34 -11.68,-7.67 -18.18,-10.2 -7.19,-2.8 -14.85,-3.94 -22.54,-3.94 -13.11,0 -25.8,3.05 -35.86,11.85 -10.04,8.78 -17.56,19.84 -23.11,31.91 l -55.56,120.57 c -1.62,4.15 -4.8,6.86 -9.41,6.86 -4.6,0 -7.78,-2.71 -9.4,-6.86 l -55.56,-120.57 c -5.58,-12.11 -13.15,-23.14 -23.28,-31.89 -10.09,-8.72 -22.59,-11.87 -35.69,-11.87 -7.69,0 -15.35,1.14 -22.54,3.94 -6.5,2.54 -12.7,5.86 -18.18,10.2 -7.03,5.57 -12.23,12.68 -15.88,20.85 -4.46,10.02 -5.69,21.87 -5.69,32.74 v 176.41 h 56.24 v -164.78 c 0,-2.84 0.81,-5.56 2.97,-7.51 1.78,-1.61 3.93,-2.54 6.34,-2.54 3.59,0 6.6,1.61 7.94,5.01 l 74.44,154.32 c 3.44,6.88 8.51,12.11 15.46,15.47 7.19,3.48 14.86,5.1 22.83,5.1 7.97,0 15.64,-1.62 22.83,-5.1 6.95,-3.37 12.02,-8.59 15.46,-15.47 l 74.44,-154.32 c 1.33,-3.4 4.35,-5.01 7.94,-5.01 2.41,0 4.56,0.93 6.34,2.54 2.16,1.94 2.97,4.67 2.97,7.51 v 164.78 z"
   id="path501" />
 </g>
</svg>
