<?xml version="1.0" encoding="UTF-8" standalone="no"?>
<!-- Creator: CorelDRAW 2021 (64-Bit) -->

<svg
   xml:space="preserve"
   width="2.1436577in"
   height="2.8805363in"
   version="1.1"
   style="clip-rule:evenodd;fill-rule:evenodd;image-rendering:optimizeQuality;shape-rendering:geometricPrecision;text-rendering:geometricPrecision"
   viewBox="0 0 2143.6576 2880.5389"
   id="svg208"
   sodipodi:docname="Unicis-Platform logo ver-beta.svg"
   inkscape:version="1.3 (0e150ed, 2023-07-21)"
   xmlns:inkscape="http://www.inkscape.org/namespaces/inkscape"
   xmlns:sodipodi="http://sodipodi.sourceforge.net/DTD/sodipodi-0.dtd"
   xmlns:xlink="http://www.w3.org/1999/xlink"
   xmlns="http://www.w3.org/2000/svg"
   xmlns:svg="http://www.w3.org/2000/svg"><sodipodi:namedview
   id="namedview210"
   pagecolor="#ffffff"
   bordercolor="#666666"
   borderopacity="1.0"
   inkscape:showpageshadow="2"
   inkscape:pageopacity="0.0"
   inkscape:pagecheckerboard="0"
   inkscape:deskcolor="#d1d1d1"
   inkscape:document-units="in"
   showgrid="false"
   inkscape:zoom="0.56009663"
   inkscape:cx="396.36018"
   inkscape:cy="560.61755"
   inkscape:window-width="1824"
   inkscape:window-height="875"
   inkscape:window-x="670"
   inkscape:window-y="163"
   inkscape:window-maximized="0"
   inkscape:current-layer="Layer_x0020_1" />&#10; <defs
   id="defs169"><style
     type="text/css"
     id="style132">&#10;   <![CDATA[
    .fil1 {fill:#0052CC}
    .fil6 {fill:#2684FF}
    .fil12 {fill:#388EFF}
    .fil0 {fill:white}
    .fil9 {fill:url(#id0)}
    .fil3 {fill:url(#id1)}
    .fil5 {fill:url(#id2)}
    .fil8 {fill:url(#id3)}
    .fil7 {fill:url(#id4)}
    .fil4 {fill:url(#id5)}
    .fil11 {fill:url(#id6)}
    .fil10 {fill:url(#id7)}
    .fil2 {fill:url(#id8)}
   ]]>&#10;  </style><linearGradient
     id="id0"
     gradientUnits="userSpaceOnUse"
     x1="4771.9399"
     y1="6299.25"
     x2="4771.9502"
     y2="5673.7202">&#10;   <stop
   offset="0"
   style="stop-opacity:1; stop-color:#388EFF"
   id="stop134" />&#10;   <stop
   offset="0.580392"
   style="stop-opacity:1; stop-color:#247BF4"
   id="stop136" />&#10;   <stop
   offset="1"
   style="stop-opacity:1; stop-color:#1067E8"
   id="stop138" />&#10;  </linearGradient><linearGradient
     id="id1"
     gradientUnits="userSpaceOnUse"
     x1="3911.8101"
     y1="5717.7402"
     x2="4096.48"
     y2="5717.75">&#10;   <stop
   offset="0"
   style="stop-opacity:1; stop-color:#0052CC"
   id="stop141" />&#10;   <stop
   offset="1"
   style="stop-opacity:1; stop-color:#0044AB"
   id="stop143" />&#10;  </linearGradient><linearGradient
     id="id2"
     gradientUnits="userSpaceOnUse"
     x1="3871.47"
     y1="6224.8398"
     x2="4293.73"
     y2="6464.4199">&#10;   <stop
   offset="0"
   style="stop-opacity:1; stop-color:#2684FF"
   id="stop146" />&#10;   <stop
   offset="1"
   style="stop-opacity:1; stop-color:#1067E8"
   id="stop148" />&#10;  </linearGradient><linearGradient
     id="id3"
     gradientUnits="userSpaceOnUse"
     x1="3495.1499"
     y1="5900.04"
     x2="3495.1499"
     y2="5252.3501">&#10;   <stop
   offset="0"
   style="stop-opacity:1; stop-color:#1067E8"
   id="stop151" />&#10;   <stop
   offset="0.380392"
   style="stop-opacity:1; stop-color:#247AF3"
   id="stop153" />&#10;   <stop
   offset="1"
   style="stop-opacity:1; stop-color:#388EFF"
   id="stop155" />&#10;  </linearGradient><linearGradient
     id="id4"
     gradientUnits="userSpaceOnUse"
     xlink:href="#id2"
     x1="3966.9199"
     y1="5018.2002"
     x2="4121.7202"
     y2="5310.54">&#10;  </linearGradient><linearGradient
     id="id5"
     gradientUnits="userSpaceOnUse"
     xlink:href="#id1"
     x1="4319.9502"
     y1="6270.2998"
     x2="4688.1201"
     y2="6051.98">&#10;  </linearGradient><linearGradient
     id="id6"
     gradientUnits="userSpaceOnUse"
     x1="4223.5698"
     y1="4992.9302"
     x2="4585"
     y2="4994.25">&#10;   <stop
   offset="0"
   style="stop-opacity:1; stop-color:#1067E8"
   id="stop160" />&#10;   <stop
   offset="0.458824"
   style="stop-opacity:1; stop-color:#247AF3"
   id="stop162" />&#10;   <stop
   offset="1"
   style="stop-opacity:1; stop-color:#388EFF"
   id="stop164" />&#10;  </linearGradient><linearGradient
     id="id7"
     gradientUnits="userSpaceOnUse"
     xlink:href="#id3"
     x1="4266.75"
     y1="5784.9302"
     x2="4266.75"
     y2="5187.27">&#10;  </linearGradient><linearGradient
     id="id8"
     gradientUnits="userSpaceOnUse"
     xlink:href="#id1"
     x1="3626.99"
     y1="6096.48"
     x2="3870.01"
     y2="6216.1499">&#10;  </linearGradient><linearGradient
     inkscape:collect="always"
     xlink:href="#id1"
     id="linearGradient2"
     gradientUnits="userSpaceOnUse"
     x1="3911.8101"
     y1="5717.7402"
     x2="4096.48"
     y2="5717.75" /><linearGradient
     inkscape:collect="always"
     xlink:href="#id2"
     id="linearGradient3"
     gradientUnits="userSpaceOnUse"
     x1="3871.47"
     y1="6224.8398"
     x2="4293.73"
     y2="6464.4199" /><linearGradient
     inkscape:collect="always"
     xlink:href="#id3"
     id="linearGradient4"
     gradientUnits="userSpaceOnUse"
     x1="3495.1499"
     y1="5900.04"
     x2="3495.1499"
     y2="5252.3501" /></defs>&#10; <g
   id="Layer_x0020_1"
   inkscape:label="Layer 1"
   inkscape:groupmode="layer"
   transform="translate(-3062.0343,-4771.3047)">&#10;  <metadata
   id="CorelCorpID_0Corel-Layer" />&#10;  &#10;  <g
   id="_2054452531392">&#10;   <path
   class="fil1"
   d="m 3922.46,4862.68 c -13.59,7.85 -10.91,19.34 1.57,26.54 56.15,32.41 112.3,64.83 168.44,97.25 15.2,8.77 24.93,3.35 24.93,-14.31 0,-60.87 0,-121.74 0,-182.61 0,-16.13 -5.34,-21.2 -21.04,-16.65 -21.11,6.11 -41.43,15.9 -60.88,25.99 -30.46,15.8 -60.06,33.22 -89.78,50.37 -7.74,4.47 -15.5,8.94 -23.24,13.42 z"
   id="path174" />&#10;   <path
   class="fil2"
   d="m 3727.08,6261.59 c 17.48,10.09 28.12,4.36 37.72,-12.26 28.12,-48.72 56.25,-97.43 84.37,-146.14 10.15,-17.59 6.53,-29.13 -10.91,-39.19 -62.81,-36.27 -125.62,-72.53 -188.43,-108.79 -14.46,-8.35 -30.94,-10.06 -45.76,-1.5 -55.01,31.76 -110.02,63.52 -165.03,95.28 -20.57,11.88 -24.33,20.47 -5.16,36.35 15.2,12.58 31.84,23.5 48.55,33.95 26.65,16.65 53.96,32.21 81.17,47.93 54.49,31.46 108.98,62.93 163.48,94.38 z"
   id="path176"
   style="fill:url(#id8)" />&#10;   <path
   class="fil1"
   d="m 3374.19,5433.66 c 0,22.26 10.33,26.19 28.87,15.48 62.72,-36.2 125.44,-72.43 188.16,-108.63 17.69,-10.21 18.61,-21.46 0.56,-31.89 -57.4,-33.14 -114.8,-66.28 -172.2,-99.43 -13.47,-7.78 -26.13,-11.47 -32.2,6.3 -7.39,21.65 -9.93,45.38 -11.33,68.11 -2.35,38.05 -1.86,76.23 -1.86,114.33 0,11.91 0,23.81 0,35.72 z"
   id="path178" />&#10;   <path
   class="fil1"
   d="m 4647.84,5059.71 v 186.83 c 0,18.72 1.49,28.1 18.59,37.97 l 209.81,121.14 c 10.85,6.26 19.79,7.83 19.79,-7.7 0,-219 0.23,-218.56 -189.41,-328.07 l -38.48,-22.22 c -10.91,-6.3 -20.3,-0.14 -20.3,12.07 z"
   id="path180" />&#10;   <path
   class="fil3"
   d="m 4117.4,5870.53 c 0,-74.41 0,-148.83 0,-223.24 0,-25.07 -6.81,-39.14 -28.8,-51.83 -57.77,-33.35 -115.53,-66.71 -173.3,-100.06 -25.39,-14.66 -31.66,-6.84 -31.66,20.42 0,71.85 0,143.69 0,215.54 0,31.32 1.18,49.27 30.39,66.14 55.24,31.89 110.49,63.79 165.73,95.69 28.7,16.56 37.63,9.78 37.63,-22.66 z"
   id="path182"
   style="fill:url(#linearGradient2)" />&#10;   <path
   class="fil4"
   d="m 4199.12,6231.44 c 53.8,31.06 107.59,62.12 161.39,93.18 34.07,19.67 42.1,18.11 75.74,-1.09 52.1,-29.74 103.91,-60.01 155.8,-90.12 18.35,-10.65 20.37,-20.2 20.37,-40.47 0,-67.69 0,-135.37 0,-203.05 0,-17.13 -13.98,-22.02 -27.72,-14.09 -128.09,73.94 -256.17,147.92 -384.26,221.86 -18.93,10.93 -21.27,22.26 -1.33,33.78 z"
   id="path184"
   style="fill:url(#id5)" />&#10;   <path
   class="fil1"
   d="m 4326.2,5152.42 -145.78,84.17 c -14,8.09 -13,20.6 0.57,28.43 58.63,33.83 117.25,67.7 175.87,101.55 20.36,11.76 29.7,7.21 29.7,-16.72 v -164 c 0,-18.72 -5.42,-25.16 -20.67,-33.96 -3.86,-2.23 -7.96,-4.7 -12.26,-5.96 -9.61,-2.8 -19.25,1.76 -27.44,6.48 z"
   id="path186" />&#10;   <path
   class="fil5"
   d="m 4341.73,6377.88 c 13.13,-7.58 8.12,-18.52 -2.97,-24.92 -141.03,-81.43 -282.06,-162.85 -423.09,-244.27 -13.43,-7.75 -25.99,-4.84 -33.85,8.77 -29.21,50.59 -58.39,101.19 -87.62,151.77 -9.61,16.64 -6.45,27.39 10.05,36.91 47.15,27.22 94.3,54.44 141.45,81.67 189.65,109.5 189.17,109.49 378.82,0 5.73,-3.31 11.47,-6.62 17.2,-9.93 z"
   id="path188"
   style="fill:url(#linearGradient3)" />&#10;   <path
   class="fil6"
   d="m 4647.84,5342.82 c 0,73.11 0,146.22 0,219.32 0,18.91 11.69,26.87 28.54,17.15 62.37,-36.02 124.74,-72.03 187.12,-108.04 13.43,-7.75 12.8,-24.67 -0.36,-32.27 -63.3,-36.54 -126.58,-73.09 -189.88,-109.63 -12.17,-7.02 -25.43,-1.49 -25.43,13.47 z"
   id="path190" />&#10;   <path
   class="fil7"
   d="m 3891.8,4911.51 c -20.23,-11.68 -34.7,-11.1 -54.77,0.49 -55.94,32.3 -111.88,64.62 -167.83,96.9 -12.19,7.03 -15.66,25.14 -2.25,32.88 61.86,35.72 123.72,71.44 185.59,107.15 28.56,16.49 31.01,34.22 31.11,65.08 0.21,62.93 0,125.85 0,188.78 0,25.72 3.06,35.21 25.89,48.39 60.88,35.14 121.75,70.29 182.62,105.43 21.81,12.6 25.24,-2.52 25.24,-21.72 0,-154.73 0,-309.46 0,-464.19 0,-15.93 -5.66,-32.2 -20.05,-40.5 -68.52,-39.55 -137.04,-79.11 -205.56,-118.68 z"
   id="path192"
   style="fill:url(#id4)" />&#10;   <path
   class="fil8"
   d="m 3374.19,5538.18 c 0,26.79 0,53.57 0,80.35 0,73.54 0,147.07 0,220.6 0,33.61 -0.25,67.24 1.18,100.82 0.91,21.3 2.45,43.02 7.09,63.87 6.87,30.82 16.86,27.19 41.12,13.19 59.43,-34.31 118.85,-68.63 178.28,-102.93 15.11,-8.72 20.53,-24.44 20.53,-41.15 0,-159.79 0,-319.57 0,-479.37 0,-15.41 -12.17,-23.13 -25.81,-15.25 -66.86,38.59 -133.7,77.2 -200.56,115.79 -16.56,9.56 -21.83,25.8 -21.83,44.07 z"
   id="path194"
   style="fill:url(#linearGradient4)" />&#10;   <path
   class="fil9"
   d="m 4896.04,5525.6 c 0,-22.1 -6.43,-28.52 -26.97,-16.66 l -195.5,112.87 c -24.45,14.12 -25.73,22.47 -25.73,49.69 v 497.32 c 0,20.39 10.72,26.13 28.29,15.99 l 30.49,-17.6 c 189.67,-109.49 189.41,-109.08 189.41,-328.07 0,-73.54 0,-147.07 0,-220.6 v -92.93 z"
   id="path196"
   style="fill:url(#id0)" />&#10;   <path
   class="fil10"
   d="m 4185.97,5895.78 c 59.39,-34.29 119.32,-67.61 178.12,-102.91 20.37,-12.22 22.48,-25.24 22.48,-47.71 0,-97.58 0,-195.17 0,-292.75 0,-20.52 -3.8,-29.99 -21.9,-40.44 -62,-35.79 -124,-71.59 -186,-107.39 -15.12,-8.73 -25.86,-2.74 -25.86,14.76 0,187.04 0,374.09 0,561.13 0,25.38 14.06,26.32 33.15,15.3 z"
   id="path198"
   style="fill:url(#id7)" />&#10;   <path
   class="fil11"
   d="m 4324.52,4849.26 c -30.19,-17.43 -60.3,-35.06 -91.31,-50.99 -18.88,-9.7 -38.47,-19.02 -58.84,-25.17 -13.96,-4.22 -21.55,-0.65 -21.55,14.89 0,130.8 0,261.59 0,392.39 0,20.59 14.06,23.13 29.86,14.01 46.26,-26.71 92.73,-53.02 139.15,-79.44 7.54,-4.3 15.54,-6.84 24.28,-6.67 19.01,0.37 41.15,15.06 57.27,24.35 l 180.91,104.36 c 21.18,12.22 28.14,0.22 28.14,-20.85 v -177.05 c 0,-13.52 -3.75,-25.79 -16.02,-32.91 -28.96,-16.8 -57.99,-33.48 -87,-50.19 l -184.89,-106.74 z"
   id="path200"
   style="fill:url(#id6)" />&#10;  </g>&#10;  <path
   class="fil12"
   d="m 3402.44,7053.8138 h -73.37 v 193.32 c 0,22.01 -12.79,32.43 -34.23,32.43 h -126.11 c -21.31,0 -33.33,-10.84 -33.33,-32.43 v -193.32 h -73.37 v 202.3 c 0,14.1 1.31,29 5.63,42.49 3.48,10.86 9.12,20.51 17.5,28.3 8.81,8.19 19.76,13.35 31.27,16.54 15.28,4.24 32.01,5.46 47.81,5.46 h 135.99 c 25.74,0 59.1,-3.5 78.84,-21.99 18.94,-17.74 23.37,-46.07 23.37,-70.8 z m 499.78,0 h -71.13 v 191.97 c 0,6.73 -3.12,12.24 -10.44,12.24 -1.87,0 -3.74,-0.28 -5.5,-0.94 -2.18,-0.82 -3.94,-2.42 -5.32,-4.15 l -148.06,-177.22 c -7.67,-8.86 -16.98,-17.38 -27.75,-22.27 -10.68,-4.86 -23,-6.36 -34.63,-6.36 -9.15,0 -18.31,1.07 -27.11,3.65 -7.77,2.28 -14.81,6 -20.82,11.43 -6.19,5.6 -10.52,12.64 -13.5,20.4 -3.75,9.79 -4.89,20.86 -4.89,31.28 v 235.06 h 71.57 v -201.39 c 0,-3.46 0.98,-6.74 3.46,-9.22 2.27,-2.27 5.12,-3.46 8.33,-3.46 4.18,0 7.61,2.43 10.32,5.48 l 166.51,192.54 c 6.54,7.56 14.36,13.42 23.71,17.02 10.26,3.94 21.45,5.33 32.39,5.33 6.9,0 13.63,-1.17 20.1,-3.56 6.34,-2.34 11.9,-5.93 16.68,-10.71 5.27,-5.27 8.98,-11.82 11.62,-18.74 3.36,-8.79 4.44,-18.56 4.44,-27.91 v -240.44 z m 207.15,0 H 4036 v 295.08 h 73.37 z m 438.74,295.08 v -71.57 h -154.72 c -12.77,0 -26.14,-1.59 -37.98,-6.61 -9.92,-4.2 -18.83,-10.11 -26.07,-18.02 -6.4,-6.72 -11.31,-14.47 -14.76,-23.09 -3.56,-8.89 -5.24,-18.23 -5.24,-27.8 0,-10.57 2.09,-20.79 6.43,-30.43 4.19,-9.3 9.93,-17.59 17.3,-24.63 l 0.08,-0.07 c 7.21,-6.56 15.55,-11.53 24.59,-15.15 11.07,-4.43 23.82,-5.68 35.65,-5.68 h 154.72 v -72.02 h -154.72 c -21.23,0 -42.99,2.66 -62.92,10.28 -17.24,6.59 -32.91,16 -46.46,28.56 -14.88,13.8 -26.56,29.98 -34.94,48.48 -8.64,19.06 -12.65,39.3 -12.65,60.22 0,18.74 3.11,37.11 10.03,54.57 6.59,16.63 15.83,31.76 27.93,44.95 13.98,15.25 30.86,26.81 49.78,35.13 21.67,9.54 45.7,12.89 69.24,12.89 h 154.72 z m 200.42,-295.08 h -73.37 v 295.08 h 73.37 z m 442.78,72.02 v -72.02 h -218.45 c -15.31,0 -33.03,1.33 -47.37,7.11 -10.89,4.38 -20.9,10.52 -29.08,19 -7.75,8.04 -13.83,17.23 -18.25,27.48 -4.51,10.47 -6.62,21.52 -6.62,32.91 0,11.43 1.94,22.61 6.41,33.17 4.3,10.18 10.34,19.27 18.01,27.23 8.22,8.52 18.33,14.64 29.29,19 14.46,5.75 32.18,7.11 47.61,7.11 h 123.43 c 4.78,0 10.44,0.26 15,1.78 3.73,1.24 6.97,3.32 9.58,6.26 5.13,5.19 7.4,11.73 7.4,19 0,6.22 -1.88,11.89 -5.94,16.62 -2.67,3.12 -6.14,5.29 -9.94,6.78 -4.87,1.91 -10.91,2.3 -16.1,2.3 h -216.66 v 69.33 h 231.02 c 14.76,0 30.29,-1.95 43.83,-8.15 11.38,-5.21 21.57,-12.33 29.78,-21.83 6.72,-7.78 11.87,-16.64 15.66,-26.19 3.86,-9.72 5.77,-19.86 5.77,-30.33 0,-11.26 -2.17,-22.12 -6.62,-32.46 -4.41,-10.25 -10.5,-19.45 -18.25,-27.48 -8.06,-8.36 -17.77,-14.56 -28.46,-19.02 -12.97,-5.42 -27.76,-7.08 -41.71,-7.08 h -133.3 c -3.89,0 -8.41,-0.19 -12.17,-1.29 -2.92,-0.86 -5.63,-2.21 -7.98,-4.15 -6.03,-4.98 -9.14,-11.54 -9.14,-19.36 0,-7.18 2.4,-13.54 7.5,-18.65 2.38,-2.38 5.31,-4.06 8.46,-5.22 4.08,-1.5 9.02,-1.83 13.33,-1.83 h 213.96 z"
   id="path203" />&#10;  <path
   class="fil12"
   d="m 3062.04,7647.7538 h 47.19 v -49.6 h 93.55 c 12.46,0 25.63,-1.61 37.04,-6.89 9.54,-4.41 17.96,-10.53 24.69,-18.64 5.27,-6.35 9.34,-13.49 12.22,-21.22 2.91,-7.8 4.34,-15.93 4.34,-24.25 0,-9.52 -1.88,-18.73 -5.61,-27.49 -3.67,-8.63 -8.81,-16.4 -15.44,-23.04 -6.61,-6.61 -14.48,-11.51 -23.13,-14.99 -10.61,-4.26 -22.76,-5.48 -34.11,-5.48 h -130.71 c -6.67,0 -10.03,2.55 -10.03,9.44 z m 141.9,-92.41 h -94.71 v -45.7 c 0,-4.13 2.37,-6.9 6.6,-6.9 h 88.11 c 5,0 10.35,0.57 14.97,2.57 3.79,1.64 7.16,4 9.71,7.27 3.78,4.86 5.56,10.47 5.56,16.61 0,5.79 -1.72,11.08 -5.23,15.69 -2.51,3.42 -5.84,5.96 -9.69,7.73 -4.68,2.15 -10.22,2.74 -15.32,2.74 z m 328.44,92.41 v -44.85 h -134.02 c -5.31,0 -12.11,-0.72 -15.92,-4.84 -3.8,-4.11 -4.4,-11.3 -4.4,-16.64 v -125.27 h -47.48 v 130.23 c 0,9.17 0.76,18.55 3.12,27.43 1.86,7.04 5.02,13.57 9.99,18.94 5.06,5.45 11.6,8.96 18.63,11.19 9.41,2.99 19.81,3.81 29.64,3.81 z m 28.38,0 h 54.97 c 0.14,-0.53 0.3,-1.06 0.47,-1.58 0.39,-1.17 0.78,-2.33 1.17,-3.5 l 0.04,-0.11 10.99,-25.44 h 120.39 l 11.26,25.65 0.02,0.04 c 0.42,1.04 0.82,2.09 1.2,3.15 0.22,0.59 0.42,1.19 0.61,1.8 h 53.69 c -0.07,-0.2 -0.15,-0.41 -0.22,-0.62 -0.5,-1.39 -1.1,-2.74 -1.77,-4.08 l -71.22,-156.46 c -4.77,-10.46 -11.57,-19.88 -21.3,-26.24 -9.82,-6.41 -21.47,-8.59 -33.04,-8.59 -11.63,0 -23.6,2.07 -33.46,8.58 -9.67,6.38 -16.44,15.79 -21.16,26.24 l -70.63,156.44 -0.03,0.05 c -0.66,1.32 -1.26,2.67 -1.76,4.06 -0.07,0.2 -0.15,0.41 -0.22,0.62 z m 171.2,-68.48 h -86.7 l 31.72,-74.52 c 1.05,-2.48 2.6,-4.81 5,-6.17 1.96,-1.1 4.09,-1.67 6.34,-1.67 2.41,0 4.69,0.61 6.74,1.89 2.24,1.4 3.79,3.53 4.87,5.91 l 32.04,74.56 z m 293.78,-123.12 h -220.49 v 46.6 h 86.65 v 145 h 47.48 v -145 h 86.36 z m 251.46,0 h -169.04 c -22.47,0 -32.78,11.12 -32.78,33.37 v 158.24 h 47.19 v -65.94 h 153.76 v -43.39 h -153.76 v -24.11 c 0,-7.08 3.68,-11.56 10.98,-11.56 h 143.65 v -46.6 z m 150.11,191.61 h 41.43 c 15.29,0 30.89,-2.17 44.96,-8.37 12.26,-5.4 23.25,-12.92 32.32,-22.81 7.84,-8.56 13.86,-18.41 18.13,-29.19 4.49,-11.32 6.51,-23.27 6.51,-35.43 0,-13.56 -2.61,-26.73 -8.21,-39.1 -5.43,-11.98 -13.04,-22.54 -22.69,-31.48 -8.79,-8.15 -18.99,-14.28 -30.17,-18.55 -12.95,-4.94 -27.07,-6.67 -40.86,-6.67 h -41.43 c -13.8,0 -27.91,1.72 -40.86,6.67 -11.18,4.27 -21.38,10.4 -30.17,18.55 -9.65,8.94 -17.26,19.5 -22.69,31.48 -5.61,12.37 -8.21,25.54 -8.21,39.1 0,12.16 2.02,24.11 6.51,35.43 4.27,10.78 10.29,20.63 18.13,29.19 9.07,9.9 20.06,17.41 32.32,22.81 14.08,6.2 29.68,8.37 44.96,8.37 z m 0,-145 h 41.43 c 7.73,0 15.99,0.81 23.22,3.7 5.88,2.35 11.31,5.61 16.02,9.87 l 0.04,0.04 c 4.93,4.45 8.56,10.01 11.28,16.05 2.82,6.28 4.19,12.95 4.19,19.83 0,6.22 -1.1,12.33 -3.41,18.11 -2.24,5.6 -5.44,10.67 -9.6,15.03 -4.74,5.17 -10.56,9.02 -17,11.76 -7.71,3.27 -16.41,4.31 -24.73,4.31 h -41.43 c -8.32,0 -17.02,-1.04 -24.73,-4.31 -6.44,-2.73 -12.26,-6.59 -17,-11.76 -4.15,-4.36 -7.36,-9.43 -9.6,-15.03 -2.31,-5.78 -3.41,-11.89 -3.41,-18.11 0,-6.88 1.36,-13.55 4.19,-19.83 2.72,-6.04 6.39,-11.56 11.28,-16.05 l 0.04,-0.04 c 4.67,-4.3 10.14,-7.52 16.02,-9.87 7.22,-2.89 15.49,-3.7 23.22,-3.7 z m 245.15,145 v -70.02 h 94.71 c 6.04,0 13.59,0.75 18.42,4.72 4.66,3.83 5.98,9.82 5.98,15.59 v 39.39 c 0,3.44 0.18,6.89 0.55,10.31 h 47.73 c -0.18,-1.75 -0.3,-3.5 -0.36,-5.26 -0.13,-3.54 -0.15,-7.07 -0.15,-10.61 v -39.39 c 0,-7.83 -0.69,-17.63 -4.23,-24.71 -2.96,-5.93 -7.68,-10.37 -13.35,-13.71 l -3.71,-2.18 3.49,-2.52 c 6.07,-4.38 10.91,-9.92 13.61,-16.96 2.66,-6.92 3.9,-14.2 3.9,-21.6 0,-6.93 -1.33,-13.67 -4.01,-20.06 -2.62,-6.24 -6.26,-11.91 -10.96,-16.79 -5.44,-5.65 -12.02,-9.86 -19.21,-12.93 -8.98,-3.83 -19.55,-4.88 -29.24,-4.88 h -140.04 c -6.7,0 -10.32,2.41 -10.32,9.44 v 182.16 h 47.19 z m 112.51,-141.8 c 3.54,3.57 5.15,8.03 5.15,13.02 0,4.5 -1.61,8.5 -4.42,11.98 -1.85,2.29 -4.13,4.1 -6.76,5.42 -3.15,1.57 -6.82,2.05 -10.3,2.05 h -96.17 v -31.4 c 0,-4.48 2.71,-7.19 7.19,-7.19 h 88.99 c 6.07,0 12.16,1.47 16.33,6.13 z m 361.2,141.8 h 45.15 v -141.61 c 0,-8.72 -0.99,-18.24 -4.57,-26.28 -2.93,-6.56 -7.1,-12.26 -12.74,-16.74 -4.4,-3.48 -9.37,-6.15 -14.59,-8.19 -5.77,-2.25 -11.92,-3.17 -18.09,-3.17 -10.52,0 -20.71,2.45 -28.78,9.52 -8.06,7.05 -14.09,15.93 -18.56,25.61 l -44.6,96.78 c -1.3,3.33 -3.85,5.5 -7.55,5.5 -3.7,0 -6.25,-2.18 -7.55,-5.5 l -44.6,-96.78 c -4.48,-9.72 -10.56,-18.57 -18.69,-25.6 -8.09,-7 -18.13,-9.53 -28.65,-9.53 -6.17,0 -12.32,0.92 -18.09,3.17 -5.22,2.04 -10.19,4.7 -14.59,8.19 -5.65,4.48 -9.82,10.18 -12.74,16.74 -3.59,8.04 -4.57,17.56 -4.57,26.28 v 141.61 h 45.15 v -132.27 c 0,-2.28 0.65,-4.46 2.39,-6.03 1.43,-1.29 3.15,-2.04 5.09,-2.04 2.88,0 5.3,1.3 6.37,4.03 l 59.75,123.87 c 2.76,5.53 6.83,9.72 12.42,12.42 5.77,2.8 11.93,4.1 18.32,4.1 6.4,0 12.56,-1.3 18.32,-4.1 5.58,-2.7 9.65,-6.89 12.41,-12.42 l 59.76,-123.87 c 1.07,-2.73 3.49,-4.03 6.37,-4.03 1.94,0 3.66,0.75 5.09,2.04 1.74,1.56 2.39,3.75 2.39,6.03 v 132.27 z"
   id="path205" />&#10; <rect
   style="clip-rule:evenodd;fill:#ffba00;fill-opacity:1;fill-rule:evenodd;stroke-width:4.64567;image-rendering:optimizeQuality;shape-rendering:geometricPrecision;text-rendering:geometricPrecision"
   id="rect1"
   width="1363.3372"
   height="470.11624"
   x="3470.7715"
   y="6501.7275"
   ry="65.816269"
   inkscape:transform-center-x="872.21027"
   inkscape:transform-center-y="-34.690391" /><text
   xml:space="preserve"
   style="font-size:416.667px;line-height:1.25;font-family:sans-serif;letter-spacing:0px;clip-rule:evenodd;fill:#ffffff;fill-rule:evenodd;stroke-width:10.4167;image-rendering:optimizeQuality;shape-rendering:geometricPrecision;text-rendering:geometricPrecision"
   x="3630.6123"
   y="6877.8208"
   id="text1"
   inkscape:transform-center-x="870.75823"
   inkscape:transform-center-y="-42.051213"><tspan
     sodipodi:role="line"
     id="tspan1"
     style="font-style:normal;font-variant:normal;font-weight:normal;font-stretch:normal;font-family:Esphimere;-inkscape-font-specification:Esphimere;fill:#ffffff;stroke-width:10.4167"
     x="3630.6123"
     y="6877.8208">BETA</tspan></text></g>&#10;</svg>
