<?xml version="1.0" encoding="UTF-8"?>
<!DOCTYPE svg PUBLIC "-//W3C//DTD SVG 1.1//EN" "http://www.w3.org/Graphics/SVG/1.1/DTD/svg11.dtd">
<!-- Creator: CorelDRAW 2021 (64-Bit) -->
<svg xmlns="http://www.w3.org/2000/svg" xml:space="preserve" width="3.93701in" height="3.04496in" version="1.1" style="shape-rendering:geometricPrecision; text-rendering:geometricPrecision; image-rendering:optimizeQuality; fill-rule:evenodd; clip-rule:evenodd"
viewBox="0 0 3937.01 3044.96"
 xmlns:xlink="http://www.w3.org/1999/xlink"
 xmlns:xodm="http://www.corel.com/coreldraw/odm/2003">
 <defs>
  <style type="text/css">
   <![CDATA[
    .fil0 {fill:none}
    .fil1 {fill:#0052CC}
    .fil6 {fill:#2684FF}
    .fil12 {fill:#388EFF}
    .fil9 {fill:url(#id0)}
    .fil8 {fill:url(#id1)}
    .fil4 {fill:url(#id2)}
    .fil3 {fill:url(#id3)}
    .fil2 {fill:url(#id4)}
    .fil11 {fill:url(#id5)}
    .fil10 {fill:url(#id6)}
    .fil7 {fill:url(#id7)}
    .fil5 {fill:url(#id8)}
   ]]>
  </style>
  <linearGradient id="id0" gradientUnits="userSpaceOnUse" x1="2664.11" y1="2036.57" x2="2664.12" y2="1354.54">
   <stop offset="0" style="stop-opacity:1; stop-color:#388EFF"/>
   <stop offset="0.580392" style="stop-opacity:1; stop-color:#247BF4"/>
   <stop offset="1" style="stop-opacity:1; stop-color:#1067E8"/>
  </linearGradient>
  <linearGradient id="id1" gradientUnits="userSpaceOnUse" x1="1271.98" y1="1601.29" x2="1271.98" y2="895.11">
   <stop offset="0" style="stop-opacity:1; stop-color:#1067E8"/>
   <stop offset="0.380392" style="stop-opacity:1; stop-color:#247AF3"/>
   <stop offset="1" style="stop-opacity:1; stop-color:#388EFF"/>
  </linearGradient>
  <linearGradient id="id2" gradientUnits="userSpaceOnUse" x1="2171.3" y1="2005" x2="2572.72" y2="1766.96">
   <stop offset="0" style="stop-opacity:1; stop-color:#0052CC"/>
   <stop offset="1" style="stop-opacity:1; stop-color:#0044AB"/>
  </linearGradient>
  <linearGradient id="id3" gradientUnits="userSpaceOnUse" xlink:href="#id2" x1="1726.28" y1="1402.54" x2="1927.64" y2="1402.54">
  </linearGradient>
  <linearGradient id="id4" gradientUnits="userSpaceOnUse" xlink:href="#id2" x1="1415.74" y1="1815.49" x2="1680.71" y2="1945.96">
  </linearGradient>
  <linearGradient id="id5" gradientUnits="userSpaceOnUse" x1="2066.21" y1="612.25" x2="2460.29" y2="613.7">
   <stop offset="0" style="stop-opacity:1; stop-color:#1067E8"/>
   <stop offset="0.458824" style="stop-opacity:1; stop-color:#247AF3"/>
   <stop offset="1" style="stop-opacity:1; stop-color:#388EFF"/>
  </linearGradient>
  <linearGradient id="id6" gradientUnits="userSpaceOnUse" xlink:href="#id1" x1="2113.28" y1="1475.79" x2="2113.28" y2="824.15">
  </linearGradient>
  <linearGradient id="id7" gradientUnits="userSpaceOnUse" x1="1786.38" y1="639.81" x2="1955.16" y2="958.56">
   <stop offset="0" style="stop-opacity:1; stop-color:#2684FF"/>
   <stop offset="1" style="stop-opacity:1; stop-color:#1067E8"/>
  </linearGradient>
  <linearGradient id="id8" gradientUnits="userSpaceOnUse" xlink:href="#id7" x1="1682.31" y1="1955.44" x2="2142.7" y2="2216.66">
  </linearGradient>
 </defs>
 <g id="Layer_x0020_1">
  <metadata id="CorelCorpID_0Corel-Layer"/>
  <rect class="fil0" x="-0" y="-0" width="3937.01" height="3044.96"/>
  <g id="_2352191538576">
   <path class="fil1" d="M1737.9 470.24c-14.81,8.55 -11.89,21.08 1.71,28.94 61.22,35.35 122.44,70.69 183.66,106.04 16.57,9.57 27.18,3.65 27.18,-15.61 0,-66.37 0,-132.74 0,-199.1 0,-17.59 -5.82,-23.11 -22.94,-18.16 -23.01,6.66 -45.17,17.34 -66.38,28.34 -33.22,17.23 -65.49,36.22 -97.89,54.93 -8.44,4.88 -16.89,9.75 -25.34,14.63z"/>
   <path class="fil2" d="M1524.87 1995.52c19.07,11 30.66,4.75 41.13,-13.37 30.66,-53.12 61.33,-106.22 91.99,-159.34 11.07,-19.18 7.12,-31.76 -11.89,-42.74 -68.48,-39.54 -136.96,-79.08 -205.45,-118.62 -15.77,-9.11 -33.74,-10.96 -49.89,-1.63 -59.98,34.63 -119.96,69.26 -179.94,103.89 -22.43,12.95 -26.53,22.32 -5.62,39.63 16.57,13.72 34.71,25.63 52.93,37.01 29.06,18.16 58.83,35.13 88.5,52.26 59.41,34.3 118.83,68.61 178.24,102.91z"/>
   <path class="fil1" d="M1140.11 1092.8c0,24.28 11.26,28.56 31.48,16.88 68.39,-39.48 136.76,-78.97 205.15,-118.44 19.29,-11.14 20.3,-23.41 0.61,-34.77 -62.59,-36.13 -125.17,-72.27 -187.75,-108.4 -14.69,-8.48 -28.49,-12.51 -35.11,6.87 -8.06,23.6 -10.83,49.48 -12.36,74.26 -2.56,41.48 -2.03,83.12 -2.03,124.66 0,12.98 0,25.96 0,38.95z"/>
   <path class="fil1" d="M2528.8 685.07l0 203.7c0,20.41 1.63,30.63 20.27,41.4l228.77 132.08c11.82,6.82 21.57,8.53 21.57,-8.41 0,-238.78 0.25,-238.3 -206.52,-357.7l-41.96 -24.23c-11.9,-6.87 -22.13,-0.15 -22.13,13.16z"/>
   <path class="fil3" d="M1950.45 1569.13c0,-81.13 0,-162.27 0,-243.41 0,-27.34 -7.43,-42.67 -31.4,-56.51 -62.99,-36.36 -125.96,-72.73 -188.95,-109.09 -27.69,-15.98 -34.52,-7.46 -34.52,22.26 0,78.34 0,156.67 0,235.01 0,34.15 1.28,53.72 33.13,72.11 60.23,34.78 120.46,69.56 180.7,104.33 31.29,18.06 41.04,10.67 41.04,-24.7z"/>
   <path class="fil4" d="M2039.55 1962.64c58.65,33.87 117.31,67.74 175.97,101.6 37.15,21.44 45.9,19.75 82.58,-1.19 56.81,-32.43 113.3,-65.43 169.88,-98.26 20.01,-11.61 22.21,-22.02 22.21,-44.13 0,-73.8 0,-147.59 0,-221.39 0,-18.68 -15.24,-24.01 -30.22,-15.37 -139.66,80.63 -279.31,161.28 -418.97,241.9 -20.63,11.91 -23.19,24.27 -1.44,36.83z"/>
   <path class="fil1" d="M2178.11 786.15l-158.94 91.77c-15.27,8.82 -14.18,22.46 0.62,31 63.93,36.89 127.84,73.82 191.76,110.72 22.2,12.81 32.39,7.86 32.39,-18.24l0 -178.81c0,-20.42 -5.91,-27.43 -22.54,-37.03 -4.21,-2.43 -8.68,-5.13 -13.37,-6.5 -10.48,-3.06 -20.98,1.91 -29.92,7.07z"/>
   <path class="fil5" d="M2195.04 2122.3c14.32,-8.26 8.86,-20.19 -3.23,-27.17 -153.77,-88.78 -307.53,-177.56 -461.3,-266.33 -14.65,-8.45 -28.34,-5.28 -36.91,9.56 -31.85,55.16 -63.67,110.33 -95.54,165.48 -10.48,18.14 -7.04,29.86 10.95,40.25 51.41,29.68 102.82,59.36 154.23,89.04 206.78,119.39 206.26,119.38 413.04,0 6.25,-3.61 12.5,-7.22 18.76,-10.83z"/>
   <path class="fil6" d="M2528.8 993.76c0,79.71 0,159.42 0,239.13 0,20.61 12.75,29.3 31.12,18.69 68.01,-39.27 136.01,-78.54 204.02,-117.8 14.65,-8.45 13.96,-26.9 -0.39,-35.19 -69.02,-39.83 -138.02,-79.7 -207.03,-119.53 -13.26,-7.66 -27.72,-1.63 -27.72,14.69z"/>
   <path class="fil7" d="M1704.48 523.49c-22.06,-12.74 -37.83,-12.11 -59.72,0.53 -61,35.22 -121.98,70.46 -182.99,105.65 -13.29,7.67 -17.07,27.41 -2.46,35.85 67.45,38.94 134.9,77.89 202.35,116.83 31.14,17.98 33.81,37.31 33.92,70.96 0.22,68.61 0,137.22 0,205.83 0,28.04 3.34,38.39 28.23,52.76 66.37,38.31 132.74,76.64 199.11,114.96 23.78,13.73 27.53,-2.75 27.53,-23.69 0,-168.7 0,-337.41 0,-506.12 0,-17.36 -6.17,-35.11 -21.86,-44.17 -74.71,-43.12 -149.42,-86.26 -224.12,-129.4z"/>
   <path class="fil8" d="M1140.11 1206.76c0,29.2 0,58.41 0,87.61 0,80.18 0,160.35 0,240.53 0,36.64 -0.27,73.31 1.28,109.93 0.98,23.22 2.67,46.91 7.73,69.64 7.49,33.61 18.38,29.65 44.84,14.38 64.8,-37.4 129.58,-74.82 194.38,-112.23 16.47,-9.51 22.38,-26.64 22.38,-44.87 0,-174.22 0,-348.44 0,-522.67 0,-16.8 -13.27,-25.21 -28.15,-16.63 -72.9,42.07 -145.78,84.17 -218.67,126.25 -18.06,10.43 -23.8,28.12 -23.8,48.06z"/>
   <path class="fil9" d="M2799.41 1193.05c0,-24.09 -7,-31.1 -29.4,-18.17l-213.15 123.07c-26.66,15.39 -28.06,24.5 -28.06,54.17l0 542.24c0,22.22 11.7,28.5 30.85,17.44l33.24 -19.19c206.8,-119.38 206.52,-118.93 206.52,-357.7 0,-80.18 0,-160.35 0,-240.53l0 -101.33z"/>
   <path class="fil10" d="M2025.21 1596.66c64.76,-37.38 130.1,-73.71 194.21,-112.2 22.2,-13.33 24.52,-27.52 24.52,-52.02 0,-106.4 0,-212.8 0,-319.19 0,-22.37 -4.14,-32.7 -23.88,-44.09 -67.6,-39.02 -135.2,-78.05 -202.8,-117.08 -16.49,-9.52 -28.2,-2.99 -28.2,16.09 0,203.94 0,407.88 0,611.81 0,27.67 15.33,28.7 36.14,16.69z"/>
   <path class="fil11" d="M2176.28 455.61c-32.91,-19 -65.74,-38.23 -99.56,-55.6 -20.59,-10.57 -41.95,-20.74 -64.15,-27.44 -15.22,-4.6 -23.5,-0.71 -23.5,16.24 0,142.61 0,285.22 0,427.83 0,22.45 15.33,25.22 32.56,15.27 50.44,-29.12 101.11,-57.81 151.72,-86.62 8.22,-4.68 16.94,-7.46 26.46,-7.28 20.73,0.41 44.87,16.41 62.44,26.55l197.25 113.79c23.09,13.32 30.68,0.24 30.68,-22.73l0 -193.04c0,-14.74 -4.09,-28.12 -17.46,-35.87 -31.57,-18.31 -63.23,-36.5 -94.86,-54.72l-201.59 -116.38z"/>
  </g>
  <g id="_2352191539056">
   <path class="fil12" d="M650.32 2611.17l-65.02 0 0 171.33c0,19.5 -11.33,28.74 -30.33,28.74l-111.78 0c-18.88,0 -29.54,-9.61 -29.54,-28.74l0 -171.33 -65.02 0 0 179.29c0,12.5 1.16,25.7 4.99,37.66 3.09,9.63 8.09,18.18 15.51,25.08 7.81,7.26 17.52,11.83 27.71,14.66 13.54,3.76 28.37,4.84 42.37,4.84l120.52 0c22.81,0 52.38,-3.11 69.87,-19.49 16.79,-15.72 20.71,-40.83 20.71,-62.74l0 -179.29zm442.94 0l-63.04 0 0 170.14c0,5.96 -2.77,10.84 -9.26,10.84 -1.66,0 -3.31,-0.24 -4.87,-0.83 -1.93,-0.72 -3.49,-2.15 -4.71,-3.67l-131.22 -157.07c-6.8,-7.85 -15.05,-15.4 -24.59,-19.74 -9.47,-4.3 -20.38,-5.64 -30.69,-5.64 -8.11,0 -16.23,0.95 -24.02,3.23 -6.89,2.02 -13.13,5.31 -18.45,10.14 -5.49,4.96 -9.32,11.2 -11.96,18.07 -3.32,8.67 -4.33,18.49 -4.33,27.72l0 208.33 63.43 0 0 -178.5c0,-3.06 0.87,-5.97 3.07,-8.17 2.01,-2.01 4.54,-3.07 7.38,-3.07 3.7,0 6.75,2.15 9.15,4.85l147.57 170.64c5.8,6.7 12.72,11.89 21.01,15.08 9.09,3.5 19.02,4.72 28.71,4.72 6.12,0 12.08,-1.03 17.82,-3.15 5.62,-2.07 10.54,-5.25 14.78,-9.49 4.67,-4.67 7.96,-10.48 10.3,-16.61 2.98,-7.79 3.94,-16.45 3.94,-24.74l0 -213.1zm183.59 0l-65.02 0 0 261.52 65.02 0 0 -261.52zm388.85 261.52l0 -63.43 -137.12 0c-11.31,0 -23.17,-1.41 -33.66,-5.86 -8.79,-3.73 -16.69,-8.96 -23.11,-15.97 -5.67,-5.95 -10.03,-12.83 -13.08,-20.46 -3.15,-7.87 -4.64,-16.16 -4.64,-24.64 0,-9.37 1.85,-18.42 5.69,-26.97 3.71,-8.24 8.8,-15.59 15.33,-21.83l0.07 -0.06c6.39,-5.81 13.78,-10.22 21.79,-13.43 9.81,-3.92 21.11,-5.04 31.6,-5.04l137.12 0 0 -63.83 -137.12 0c-18.81,0 -38.11,2.35 -55.77,9.1 -15.28,5.84 -29.16,14.18 -41.17,25.31 -13.19,12.23 -23.54,26.58 -30.97,42.97 -7.66,16.9 -11.21,34.83 -11.21,53.37 0,16.62 2.76,32.89 8.89,48.36 5.85,14.74 14.04,28.15 24.75,39.84 12.39,13.52 27.35,23.76 44.11,31.14 19.21,8.46 40.51,11.42 61.37,11.42l137.12 0zm177.63 -261.52l-65.03 0 0 261.52 65.03 0 0 -261.52zm392.43 63.83l0 -63.83 -193.61 0c-13.57,0 -29.28,1.18 -41.98,6.3 -9.65,3.89 -18.52,9.32 -25.77,16.84 -6.87,7.12 -12.26,15.27 -16.17,24.35 -4,9.28 -5.87,19.07 -5.87,29.17 0,10.13 1.72,20.04 5.68,29.39 3.81,9.02 9.16,17.08 15.96,24.13 7.28,7.55 16.25,12.97 25.96,16.83 12.82,5.1 28.52,6.3 42.19,6.3l109.39 0c4.23,0 9.25,0.23 13.3,1.58 3.31,1.1 6.18,2.94 8.49,5.55 4.55,4.6 6.56,10.4 6.56,16.84 0,5.51 -1.67,10.54 -5.26,14.73 -2.37,2.76 -5.44,4.69 -8.81,6.01 -4.32,1.69 -9.67,2.04 -14.27,2.04l-192.02 0 0 61.44 204.75 0c13.08,0 26.84,-1.73 38.84,-7.22 10.09,-4.62 19.11,-10.93 26.39,-19.35 5.96,-6.89 10.52,-14.75 13.88,-23.21 3.43,-8.62 5.11,-17.61 5.11,-26.88 0,-9.98 -1.92,-19.61 -5.87,-28.78 -3.91,-9.09 -9.31,-17.24 -16.17,-24.35 -7.15,-7.41 -15.74,-12.9 -25.22,-16.86 -11.5,-4.8 -24.6,-6.28 -36.96,-6.28l-118.14 0c-3.45,0 -7.46,-0.17 -10.79,-1.15 -2.58,-0.76 -4.99,-1.96 -7.07,-3.68 -5.35,-4.42 -8.1,-10.22 -8.1,-17.16 0,-6.37 2.12,-12 6.65,-16.53 2.11,-2.11 4.71,-3.61 7.5,-4.63 3.61,-1.33 7.99,-1.62 11.81,-1.62l189.63 0z"/>
   <path class="fil12" d="M2417.76 2807.24l-65.33 0 0 63 65.33 0 0 -63zm82.61 63l75.46 0c0.23,-0.96 0.5,-1.91 0.81,-2.84 0.52,-1.56 1.04,-3.11 1.56,-4.66l0.04 -0.11 14.32 -33.13 158.69 0 14.69 33.44c0.57,1.41 1.09,2.8 1.6,4.19 0.37,1.03 0.72,2.06 1.04,3.11l73.7 0c-0.24,-0.76 -0.49,-1.53 -0.76,-2.28 -0.68,-1.89 -1.5,-3.73 -2.42,-5.57l-94.7 -208.04c-6.43,-14.12 -15.6,-26.79 -28.72,-35.36 -13.24,-8.64 -28.93,-11.6 -44.54,-11.6 -15.69,0 -31.8,2.82 -45.11,11.59 -13.04,8.6 -22.17,21.26 -28.54,35.36l-93.93 208.05 -0.02 0.05c-0.9,1.8 -1.72,3.64 -2.4,5.53 -0.27,0.75 -0.52,1.52 -0.76,2.28zm227.55 -93.27l-112.03 0 41.54 -97.6c1.3,-3.06 3.21,-6 6.18,-7.67 2.44,-1.37 5.09,-2.09 7.9,-2.09 3,0 5.84,0.75 8.39,2.34 2.78,1.74 4.71,4.41 6.06,7.38l41.96 97.63zm194.24 93.27l64.94 0 0 -65.97 123.33 0c16.72,0 34.41,-2.19 49.72,-9.26 12.86,-5.94 24.17,-14.17 33.22,-25.09 7.09,-8.55 12.55,-18.13 16.44,-28.53 3.92,-10.5 5.85,-21.43 5.85,-32.64 0,-12.83 -2.52,-25.19 -7.55,-36.99 -4.95,-11.63 -11.85,-22.05 -20.78,-30.98 -8.9,-8.9 -19.48,-15.49 -31.13,-20.18 -14.21,-5.71 -30.57,-7.38 -45.78,-7.38l-173.85 0c-9.52,0 -14.43,3.91 -14.43,13.65l0 243.38zm189.83 -125.09l-124.89 0 0 -59.69c0,-4.89 2.67,-8.08 7.69,-8.08l117.2 0c6.47,0 13.49,0.73 19.48,3.32 4.87,2.11 9.21,5.13 12.48,9.34 4.88,6.27 7.16,13.5 7.16,21.42 0,7.48 -2.21,14.28 -6.74,20.21 -3.22,4.4 -7.5,7.66 -12.46,9.94 -6.07,2.79 -13.32,3.54 -19.93,3.54zm183.51 125.09l64.94 0 0 -65.97 123.33 0c16.72,0 34.41,-2.19 49.72,-9.26 12.86,-5.94 24.17,-14.17 33.22,-25.09 7.09,-8.55 12.55,-18.13 16.44,-28.53 3.92,-10.5 5.85,-21.43 5.85,-32.64 0,-12.83 -2.53,-25.19 -7.55,-36.99 -4.95,-11.63 -11.84,-22.05 -20.78,-30.98 -8.9,-8.9 -19.48,-15.49 -31.13,-20.18 -14.21,-5.71 -30.57,-7.38 -45.77,-7.38l-173.85 0c-9.52,0 -14.43,3.91 -14.43,13.65l0 243.38zm189.83 -125.09l-124.89 0 0 -59.69c0,-4.89 2.67,-8.08 7.69,-8.08l117.19 0c6.48,0 13.49,0.73 19.48,3.32 4.88,2.11 9.21,5.13 12.49,9.34 4.88,6.27 7.16,13.5 7.16,21.42 0,7.48 -2.22,14.28 -6.74,20.21 -3.22,4.4 -7.5,7.66 -12.46,9.94 -6.07,2.79 -13.32,3.54 -19.93,3.54z"/>
  </g>
 </g>
</svg>
