<?xml version="1.0" encoding="UTF-8"?>
<!DOCTYPE svg PUBLIC "-//W3C//DTD SVG 1.1//EN" "http://www.w3.org/Graphics/SVG/1.1/DTD/svg11.dtd">
<!-- Creator: CorelDRAW 2021 (64-Bit) -->
<svg xmlns="http://www.w3.org/2000/svg" xml:space="preserve" width="4.6063in" height="1.49606in" version="1.1" style="shape-rendering:geometricPrecision; text-rendering:geometricPrecision; image-rendering:optimizeQuality; fill-rule:evenodd; clip-rule:evenodd"
viewBox="0 0 4606.3 1496.06"
 xmlns:xlink="http://www.w3.org/1999/xlink"
 xmlns:xodm="http://www.corel.com/coreldraw/odm/2003">
 <defs>
  <style type="text/css">
   <![CDATA[
    .fil0 {fill:none}
    .fil1 {fill:#0052CC}
    .fil6 {fill:#2684FF}
    .fil12 {fill:#388EFF}
    .fil9 {fill:url(#id0)}
    .fil2 {fill:url(#id1)}
    .fil3 {fill:url(#id2)}
    .fil5 {fill:url(#id3)}
    .fil10 {fill:url(#id4)}
    .fil8 {fill:url(#id5)}
    .fil11 {fill:url(#id6)}
    .fil7 {fill:url(#id7)}
    .fil4 {fill:url(#id8)}
   ]]>
  </style>
  <linearGradient id="id0" gradientUnits="userSpaceOnUse" x1="956.17" y1="1093.73" x2="956.17" y2="773.59">
   <stop offset="0" style="stop-opacity:1; stop-color:#388EFF"/>
   <stop offset="0.580392" style="stop-opacity:1; stop-color:#247BF4"/>
   <stop offset="1" style="stop-opacity:1; stop-color:#1067E8"/>
  </linearGradient>
  <linearGradient id="id1" gradientUnits="userSpaceOnUse" x1="370.2" y1="989.96" x2="494.57" y2="1051.2">
   <stop offset="0" style="stop-opacity:1; stop-color:#0052CC"/>
   <stop offset="1" style="stop-opacity:1; stop-color:#0044AB"/>
  </linearGradient>
  <linearGradient id="id2" gradientUnits="userSpaceOnUse" xlink:href="#id1" x1="515.96" y1="796.12" x2="610.48" y2="796.12">
  </linearGradient>
  <linearGradient id="id3" gradientUnits="userSpaceOnUse" x1="495.32" y1="1055.65" x2="711.43" y2="1178.26">
   <stop offset="0" style="stop-opacity:1; stop-color:#2684FF"/>
   <stop offset="1" style="stop-opacity:1; stop-color:#1067E8"/>
  </linearGradient>
  <linearGradient id="id4" gradientUnits="userSpaceOnUse" x1="697.61" y1="830.5" x2="697.61" y2="524.63">
   <stop offset="0" style="stop-opacity:1; stop-color:#1067E8"/>
   <stop offset="0.380392" style="stop-opacity:1; stop-color:#247AF3"/>
   <stop offset="1" style="stop-opacity:1; stop-color:#388EFF"/>
  </linearGradient>
  <linearGradient id="id5" gradientUnits="userSpaceOnUse" xlink:href="#id4" x1="302.72" y1="889.41" x2="302.72" y2="557.94">
  </linearGradient>
  <linearGradient id="id6" gradientUnits="userSpaceOnUse" x1="675.52" y1="425.17" x2="860.5" y2="425.85">
   <stop offset="0" style="stop-opacity:1; stop-color:#1067E8"/>
   <stop offset="0.458824" style="stop-opacity:1; stop-color:#247AF3"/>
   <stop offset="1" style="stop-opacity:1; stop-color:#388EFF"/>
  </linearGradient>
  <linearGradient id="id7" gradientUnits="userSpaceOnUse" xlink:href="#id3" x1="544.17" y1="438.1" x2="623.39" y2="587.72">
  </linearGradient>
  <linearGradient id="id8" gradientUnits="userSpaceOnUse" xlink:href="#id1" x1="724.85" y1="1078.91" x2="913.27" y2="967.18">
  </linearGradient>
 </defs>
 <g id="Layer_x0020_1">
  <metadata id="CorelCorpID_0Corel-Layer"/>
  <rect class="fil0" x="-0" y="-0" width="4606.3" height="1496.06"/>
  <path class="fil1" d="M521.42 358.51c-6.95,4.01 -5.58,9.89 0.8,13.58 28.74,16.59 57.47,33.18 86.2,49.77 7.78,4.49 12.76,1.72 12.76,-7.33 0,-31.15 0,-62.3 0,-93.46 0,-8.25 -2.73,-10.85 -10.77,-8.52 -10.8,3.13 -21.2,8.14 -31.16,13.3 -15.59,8.09 -30.74,17 -45.95,25.78 -3.96,2.29 -7.93,4.57 -11.89,6.87z"/>
  <path class="fil2" d="M421.42 1074.46c8.95,5.17 14.39,2.23 19.3,-6.28 14.39,-24.93 28.79,-49.86 43.18,-74.79 5.2,-9 3.34,-14.91 -5.58,-20.06 -32.15,-18.56 -64.29,-37.12 -96.44,-55.68 -7.4,-4.27 -15.83,-5.14 -23.42,-0.76 -28.15,16.25 -56.31,32.5 -84.46,48.76 -10.53,6.08 -12.45,10.48 -2.64,18.6 7.78,6.44 16.3,12.03 24.85,17.37 13.64,8.52 27.61,16.49 41.54,24.53 27.89,16.1 55.78,32.2 83.67,48.3z"/>
  <path class="fil1" d="M240.82 650.73c0,11.39 5.28,13.4 14.78,7.92 32.1,-18.53 64.2,-37.07 96.3,-55.59 9.06,-5.23 9.53,-10.99 0.29,-16.32 -29.38,-16.96 -58.76,-33.93 -88.13,-50.89 -6.89,-3.98 -13.37,-5.87 -16.48,3.22 -3.78,11.08 -5.08,23.22 -5.8,34.85 -1.2,19.47 -0.95,39.02 -0.95,58.52 0,6.09 0,12.19 0,18.28z"/>
  <path class="fil1" d="M892.66 459.35l0 95.62c0,9.58 0.76,14.38 9.51,19.43l107.38 62c5.55,3.2 10.13,4 10.13,-3.94 0,-112.08 0.12,-111.86 -96.94,-167.9l-19.7 -11.37c-5.59,-3.23 -10.39,-0.07 -10.39,6.17z"/>
  <path class="fil3" d="M621.19 874.32c0,-38.09 0,-76.17 0,-114.25 0,-12.83 -3.49,-20.03 -14.74,-26.53 -29.57,-17.07 -59.13,-34.14 -88.69,-51.2 -13,-7.5 -16.2,-3.5 -16.2,10.45 0,36.77 0,73.54 0,110.31 0,16.03 0.6,25.22 15.55,33.85 28.28,16.32 56.55,32.65 84.82,48.97 14.69,8.48 19.26,5.01 19.26,-11.59z"/>
  <path class="fil4" d="M663.01 1059.03c27.53,15.9 55.06,31.8 82.6,47.69 17.44,10.07 21.54,9.27 38.76,-0.56 26.67,-15.22 53.18,-30.71 79.74,-46.12 9.39,-5.45 10.43,-10.34 10.43,-20.71 0,-34.64 0,-69.28 0,-103.92 0,-8.77 -7.15,-11.27 -14.19,-7.21 -65.56,37.85 -131.1,75.7 -196.66,113.55 -9.69,5.59 -10.89,11.39 -0.68,17.29z"/>
  <path class="fil1" d="M728.05 506.8l-74.61 43.08c-7.17,4.14 -6.65,10.54 0.29,14.55 30.01,17.32 60.01,34.65 90.01,51.97 10.42,6.02 15.2,3.69 15.2,-8.56l0 -83.93c0,-9.58 -2.78,-12.87 -10.58,-17.38 -1.98,-1.14 -4.07,-2.41 -6.28,-3.05 -4.92,-1.43 -9.85,0.9 -14.04,3.32z"/>
  <path class="fil5" d="M735.99 1133.97c6.72,-3.88 4.16,-9.48 -1.52,-12.76 -72.18,-41.67 -144.35,-83.34 -216.53,-125.01 -6.87,-3.97 -13.3,-2.48 -17.32,4.49 -14.95,25.89 -29.89,51.79 -44.84,77.67 -4.92,8.52 -3.3,14.02 5.14,18.89 24.13,13.93 48.27,27.86 72.4,41.8 97.06,56.04 96.81,56.04 193.87,0 2.94,-1.69 5.87,-3.39 8.81,-5.08z"/>
  <path class="fil6" d="M892.66 604.24c0,37.41 0,74.83 0,112.24 0,9.68 5.98,13.76 14.61,8.78 31.93,-18.43 63.84,-36.87 95.77,-55.3 6.87,-3.97 6.55,-12.63 -0.19,-16.51 -32.4,-18.7 -64.78,-37.41 -97.18,-56.11 -6.23,-3.59 -13.01,-0.76 -13.01,6.9z"/>
  <path class="fil7" d="M505.72 383.5c-10.35,-5.98 -17.76,-5.68 -28.03,0.25 -28.63,16.53 -57.26,33.07 -85.89,49.59 -6.24,3.59 -8.02,12.86 -1.15,16.83 31.66,18.28 63.32,36.56 94.98,54.84 14.62,8.44 15.87,17.52 15.93,33.31 0.1,32.2 0,64.41 0,96.61 0,13.16 1.57,18.02 13.25,24.76 31.16,17.98 62.31,35.97 93.46,53.96 11.17,6.45 12.92,-1.29 12.92,-11.12 0,-79.19 0,-158.38 0,-237.57 0,-8.15 -2.89,-16.48 -10.26,-20.73 -35.07,-20.24 -70.13,-40.49 -105.2,-60.74z"/>
  <path class="fil8" d="M240.82 704.22c0,13.71 0,27.42 0,41.13 0,37.63 0,75.27 0,112.9 0,17.2 -0.13,34.41 0.6,51.6 0.46,10.9 1.25,22.02 3.63,32.69 3.52,15.78 8.63,13.92 21.05,6.75 30.41,-17.56 60.82,-35.12 91.24,-52.68 7.73,-4.46 10.51,-12.5 10.51,-21.06 0,-81.78 0,-163.56 0,-245.33 0,-7.89 -6.23,-11.83 -13.21,-7.81 -34.22,19.75 -68.43,39.51 -102.64,59.26 -8.48,4.89 -11.17,13.2 -11.17,22.56z"/>
  <path class="fil9" d="M1019.68 697.79c0,-11.31 -3.29,-14.6 -13.8,-8.53l-100.06 57.76c-12.51,7.23 -13.17,11.5 -13.17,25.43l0 254.52c0,10.43 5.49,13.37 14.48,8.19l15.6 -9.01c97.07,-56.03 96.94,-55.83 96.94,-167.9 0,-37.63 0,-75.27 0,-112.9l0 -47.56z"/>
  <path class="fil10" d="M656.28 887.24c30.39,-17.55 61.07,-34.6 91.16,-52.67 10.42,-6.26 11.51,-12.92 11.51,-24.42 0,-49.94 0,-99.88 0,-149.83 0,-10.5 -1.94,-15.35 -11.21,-20.7 -31.73,-18.31 -63.46,-36.64 -95.19,-54.96 -7.74,-4.47 -13.24,-1.41 -13.24,7.55 0,95.73 0,191.45 0,287.18 0,12.99 7.2,13.47 16.96,7.83z"/>
  <path class="fil11" d="M727.19 351.65c-15.45,-8.92 -30.86,-17.94 -46.73,-26.1 -9.67,-4.96 -19.69,-9.74 -30.11,-12.88 -7.14,-2.16 -11.03,-0.33 -11.03,7.62 0,66.94 0,133.88 0,200.82 0,10.54 7.2,11.84 15.28,7.17 23.67,-13.67 47.46,-27.14 71.21,-40.66 3.86,-2.2 7.96,-3.5 12.43,-3.41 9.73,0.19 21.06,7.7 29.31,12.46l92.59 53.41c10.84,6.25 14.4,0.11 14.4,-10.67l0 -90.61c0,-6.92 -1.92,-13.2 -8.2,-16.84 -14.82,-8.6 -29.68,-17.13 -44.53,-25.69l-94.62 -54.63z"/>
  <g id="_3231005808112">
   <path class="fil12" d="M1650.97 639.62l-59.08 0 0 155.68c0,17.72 -10.3,26.12 -27.57,26.12l-101.56 0c-17.16,0 -26.84,-8.73 -26.84,-26.12l0 -155.68 -59.08 0 0 162.91c0,11.36 1.05,23.36 4.54,34.22 2.81,8.74 7.35,16.51 14.09,22.79 7.09,6.59 15.91,10.75 25.18,13.32 12.3,3.42 25.78,4.4 38.5,4.4l109.52 0c20.73,0 47.59,-2.82 63.49,-17.71 15.26,-14.28 18.82,-37.11 18.82,-57.02l0 -162.91zm402.49 0l-57.28 0 0 154.6c0,5.42 -2.52,9.85 -8.41,9.85 -1.51,0 -3.01,-0.22 -4.43,-0.76 -1.75,-0.66 -3.17,-1.95 -4.28,-3.34l-119.24 -142.72c-6.17,-7.13 -13.68,-14 -22.35,-17.94 -8.61,-3.91 -18.52,-5.12 -27.89,-5.12 -7.37,0 -14.74,0.86 -21.83,2.94 -6.26,1.83 -11.93,4.83 -16.77,9.21 -4.98,4.51 -8.47,10.18 -10.87,16.43 -3.02,7.88 -3.94,16.8 -3.94,25.19l0 189.3 57.64 0 0 -162.19c0,-2.78 0.79,-5.43 2.79,-7.43 1.83,-1.83 4.12,-2.79 6.7,-2.79 3.36,0 6.13,1.96 8.31,4.41l134.09 155.06c5.27,6.09 11.56,10.81 19.09,13.7 8.26,3.18 17.28,4.3 26.09,4.3 5.56,0 10.98,-0.94 16.19,-2.86 5.11,-1.89 9.58,-4.78 13.43,-8.63 4.24,-4.24 7.23,-9.52 9.36,-15.09 2.7,-7.07 3.57,-14.95 3.57,-22.48l0 -193.63zm166.83 0l-59.09 0 0 237.63 59.09 0 0 -237.63zm353.33 237.63l0 -57.64 -124.6 0c-10.28,0 -21.05,-1.28 -30.59,-5.33 -7.98,-3.39 -15.16,-8.15 -21,-14.51 -5.15,-5.41 -9.11,-11.66 -11.89,-18.6 -2.86,-7.15 -4.22,-14.68 -4.22,-22.39 0,-8.52 1.68,-16.74 5.17,-24.5 3.37,-7.49 8,-14.17 13.93,-19.84l0.06 -0.06c5.81,-5.28 12.52,-9.28 19.8,-12.2 8.91,-3.56 19.19,-4.57 28.71,-4.57l124.6 0 0 -58 -124.6 0c-17.1,0 -34.63,2.14 -50.67,8.27 -13.88,5.3 -26.5,12.89 -37.41,23 -11.99,11.11 -21.39,24.15 -28.14,39.05 -6.96,15.35 -10.19,31.65 -10.19,48.5 0,15.1 2.5,29.89 8.08,43.94 5.31,13.39 12.75,25.58 22.49,36.2 11.26,12.28 24.85,21.59 40.08,28.3 17.46,7.69 36.81,10.38 55.76,10.38l124.6 0zm161.41 -237.63l-59.08 0 0 237.63 59.08 0 0 -237.63zm356.58 58l0 -58 -175.93 0c-12.33,0 -26.6,1.07 -38.15,5.72 -8.77,3.53 -16.83,8.47 -23.42,15.3 -6.24,6.47 -11.14,13.87 -14.7,22.13 -3.63,8.43 -5.33,17.33 -5.33,26.51 0,9.2 1.57,18.21 5.16,26.71 3.46,8.2 8.33,15.52 14.5,21.93 6.62,6.86 14.76,11.79 23.59,15.3 11.65,4.63 25.91,5.73 38.34,5.73l99.4 0c3.85,0 8.41,0.21 12.08,1.44 3,1 5.61,2.67 7.71,5.04 4.13,4.18 5.96,9.44 5.96,15.3 0,5 -1.51,9.57 -4.78,13.38 -2.15,2.51 -4.95,4.26 -8.01,5.46 -3.92,1.54 -8.79,1.86 -12.96,1.86l-174.48 0 0 55.83 186.05 0c11.89,0 24.39,-1.57 35.29,-6.56 9.17,-4.2 17.37,-9.93 23.98,-17.58 5.42,-6.27 9.56,-13.41 12.61,-21.09 3.11,-7.83 4.64,-16 4.64,-24.43 0,-9.07 -1.74,-17.81 -5.33,-26.15 -3.56,-8.26 -8.46,-15.66 -14.7,-22.13 -6.5,-6.73 -14.31,-11.72 -22.92,-15.32 -10.44,-4.36 -22.35,-5.7 -33.59,-5.7l-107.35 0c-3.13,0 -6.78,-0.15 -9.8,-1.04 -2.35,-0.69 -4.54,-1.78 -6.43,-3.34 -4.86,-4.02 -7.36,-9.29 -7.36,-15.59 0,-5.78 1.93,-10.91 6.04,-15.02 1.92,-1.92 4.28,-3.27 6.81,-4.21 3.28,-1.21 7.26,-1.47 10.73,-1.47l172.31 0z"/>
   <path class="fil12" d="M3256.97 817.78l-59.36 0 0 57.24 59.36 0 0 -57.24zm75.06 57.24l68.57 0c0.21,-0.87 0.45,-1.73 0.74,-2.58 0.47,-1.41 0.94,-2.82 1.41,-4.23l0.03 -0.1 13.01 -30.11 144.2 0 13.34 30.39c0.52,1.29 1,2.55 1.45,3.81 0.34,0.93 0.65,1.87 0.94,2.82l66.97 0c-0.21,-0.69 -0.44,-1.39 -0.69,-2.07 -0.61,-1.72 -1.37,-3.39 -2.2,-5.06l-86.06 -189.04c-5.84,-12.83 -14.17,-24.35 -26.1,-32.13 -12.04,-7.85 -26.29,-10.54 -40.47,-10.54 -14.26,0 -28.9,2.56 -40.99,10.54 -11.85,7.81 -20.15,19.32 -25.93,32.13l-85.35 189.04 -0.02 0.04c-0.81,1.63 -1.56,3.31 -2.18,5.02 -0.24,0.69 -0.47,1.38 -0.69,2.07zm206.77 -84.75l-101.8 0 37.74 -88.68c1.19,-2.79 2.92,-5.46 5.62,-6.98 2.22,-1.25 4.63,-1.89 7.17,-1.89 2.73,0 5.31,0.68 7.62,2.13 2.53,1.58 4.28,4.01 5.51,6.71l38.12 88.71zm176.5 84.75l59.01 0 0 -59.94 112.07 0c15.2,0 31.27,-1.99 45.19,-8.42 11.68,-5.4 21.96,-12.87 30.19,-22.8 6.44,-7.77 11.41,-16.47 14.94,-25.93 3.56,-9.54 5.31,-19.47 5.31,-29.66 0,-11.66 -2.29,-22.89 -6.86,-33.61 -4.5,-10.57 -10.76,-20.04 -18.88,-28.15 -8.09,-8.09 -17.7,-14.08 -28.28,-18.33 -12.92,-5.19 -27.78,-6.7 -41.59,-6.7l-157.97 0c-8.65,0 -13.11,3.55 -13.11,12.4l0 221.15zm172.49 -113.66l-113.48 0 0 -54.24c0,-4.44 2.43,-7.34 6.99,-7.34l106.49 0c5.89,0 12.26,0.66 17.7,3.02 4.43,1.91 8.37,4.66 11.35,8.49 4.43,5.7 6.5,12.27 6.5,19.46 0,6.8 -2.01,12.97 -6.12,18.37 -2.93,4 -6.81,6.96 -11.33,9.03 -5.51,2.54 -12.1,3.22 -18.11,3.22zm166.75 113.66l59.01 0 0 -59.94 112.07 0c15.19,0 31.27,-1.99 45.18,-8.42 11.69,-5.4 21.96,-12.87 30.19,-22.8 6.44,-7.77 11.41,-16.47 14.94,-25.93 3.56,-9.54 5.31,-19.47 5.31,-29.66 0,-11.66 -2.29,-22.89 -6.86,-33.61 -4.5,-10.57 -10.76,-20.04 -18.88,-28.15 -8.09,-8.09 -17.7,-14.08 -28.28,-18.33 -12.92,-5.19 -27.78,-6.7 -41.59,-6.7l-157.97 0c-8.65,0 -13.11,3.55 -13.11,12.4l0 221.15zm172.49 -113.66l-113.48 0 0 -54.24c0,-4.44 2.43,-7.34 6.99,-7.34l106.49 0c5.89,0 12.26,0.66 17.7,3.02 4.43,1.91 8.37,4.66 11.35,8.49 4.43,5.7 6.5,12.27 6.5,19.46 0,6.8 -2.01,12.97 -6.12,18.37 -2.93,4 -6.81,6.96 -11.33,9.03 -5.51,2.54 -12.1,3.22 -18.11,3.22z"/>
  </g>
 </g>
</svg>
